<svg id="svg" version="1.1" xmlns="http://www.w3.org/2000/svg" style="display: block;" viewBox="0 0 500 500"><path d="M0 0 C165 0 330 0 500 0 C500 165 500 330 500 500 C335 500 170 500 0 500 C0 335 0 170 0 0 Z " transform="translate(0,0)" style="fill: #FEFEFE;"/><path d="M0 0 C0 0.66 0 1.32 0 2 C0.86915039 2.41076782 0.86915039 2.41076782 1.75585938 2.82983398 C3.96580315 3.98216868 5.89101455 5.25943513 7.90625 6.72265625 C9.01262817 7.52340576 9.01262817 7.52340576 10.14135742 8.34033203 C10.91970947 8.90864746 11.69806152 9.47696289 12.5 10.0625 C13.30735596 10.6488623 14.11471191 11.23522461 14.9465332 11.83935547 C20.34018533 15.76504343 25.6929655 19.74031717 31.015625 23.76171875 C34.46774382 26.35080787 37.9513374 28.89456894 41.4375 31.4375 C46.11559379 34.85242575 50.73905013 38.32107233 55.3125 41.875 C61.08602615 46.3583627 66.99408105 50.64038519 72.92944336 54.90625 C86.00683374 64.30874199 98.92330926 73.92541426 111.7980957 83.6027832 C118.50167579 88.63752018 125.2513578 93.60575604 132.02050781 98.55175781 C142.38921859 106.13774602 152.73267728 113.7569549 162.97631836 121.51123047 C166.6072875 124.24786546 170.27675025 126.91569791 173.99609375 129.53125 C175.24604126 130.41478149 175.24604126 130.41478149 176.52124023 131.31616211 C178.14623092 132.4610019 179.77709346 133.59756213 181.41430664 134.72485352 C182.14383545 135.23975342 182.87336426 135.75465332 183.625 136.28515625 C184.27726562 136.73769775 184.92953125 137.19023926 185.6015625 137.65649414 C186.06304687 138.09985107 186.52453125 138.54320801 187 139 C187 139.99 187 140.98 187 142 C184.95057063 143.67956194 182.9420378 145.15360493 180.75 146.625 C179.44576278 147.52741599 178.14238978 148.43108217 176.83984375 149.3359375 C176.18612793 149.78678711 175.53241211 150.23763672 174.85888672 150.70214844 C172.29675683 152.49099563 169.80326723 154.36337631 167.3125 156.25 C162.21329683 160.09807242 157.08234166 163.90066389 151.9375 167.6875 C151.12708252 168.28401367 150.31666504 168.88052734 149.48168945 169.49511719 C147.81715196 170.72001798 146.15251894 171.94478897 144.48779297 173.16943359 C140.49031455 176.11085589 136.49524623 179.05554693 132.5 182 C130.91667895 183.16668333 129.3333456 184.33334998 127.75 185.5 C126.96625 186.0775 126.1825 186.655 125.375 187.25 C121.8125 189.875 121.8125 189.875 118.25 192.5 C117.46592773 193.0777417 116.68185547 193.6554834 115.87402344 194.25073242 C114.29396168 195.4149799 112.71388361 196.57920523 111.13378906 197.7434082 C107.12526509 200.6969052 103.11704356 203.65081111 99.109375 206.60546875 C90.61322997 212.86869621 82.11256172 219.12557802 73.59765625 225.36328125 C71.1870937 227.12919648 68.7783582 228.89756042 66.37109375 230.66796875 C55.10601341 238.94921975 43.77212519 247.13436605 32.41796875 255.29296875 C23.62694882 261.61625137 14.90339084 268.01812995 6.2578125 274.5390625 C5.39784668 275.17956543 5.39784668 275.17956543 4.52050781 275.83300781 C3.25943995 276.80087942 2.05460545 277.84150504 0.8671875 278.8984375 C-1 280 -1 280 -3.37255859 279.73120117 C-6.09158214 278.97451324 -7.66673368 278.09020616 -9.90625 276.40234375 C-10.63948486 275.85610352 -11.37271973 275.30986328 -12.12817383 274.74707031 C-13.30222778 273.85133301 -13.30222778 273.85133301 -14.5 272.9375 C-15.73882935 272.0088916 -15.73882935 272.0088916 -17.00268555 271.06152344 C-19.67683812 269.05183294 -22.33986547 267.0282032 -25 265 C-25.89541504 264.31760254 -26.79083008 263.63520508 -27.71337891 262.93212891 C-31.30901762 260.18960484 -34.90372588 257.44589395 -38.49414062 254.6965332 C-43.98027875 250.50471048 -49.52572331 246.42360641 -55.17041016 242.44873047 C-59.65263737 239.28204164 -63.99727095 235.96278394 -68.33154297 232.59912109 C-72.43721885 229.41744021 -76.60889269 226.34423397 -80.8203125 223.3046875 C-84.89655376 220.35016373 -88.94845893 217.36326655 -93 214.375 C-93.8142041 213.77461914 -94.6284082 213.17423828 -95.46728516 212.55566406 C-97.14362581 211.31943237 -98.81989461 210.08310324 -100.49609375 208.84667969 C-104.49637182 205.8963966 -108.49824007 202.94827259 -112.5 200 C-114.08334152 198.83334445 -115.66667484 197.66667776 -117.25 196.5 C-118.03375 195.9225 -118.8175 195.345 -119.625 194.75 C-126.75 189.5 -126.75 189.5 -129.12524414 187.74975586 C-130.70768185 186.58379194 -132.29020131 185.41793896 -133.87280273 184.25219727 C-137.84551887 181.32568557 -141.81676994 178.39722466 -145.78515625 175.46484375 C-153.54167065 169.73576215 -161.31124321 164.02584656 -169.125 158.375 C-170.21735962 157.58440186 -170.21735962 157.58440186 -171.33178711 156.77783203 C-175.16571152 154.01250393 -179.0205538 151.28201024 -182.90625 148.58984375 C-184.09323486 147.76444092 -184.09323486 147.76444092 -185.30419922 146.92236328 C-186.822513 145.86915888 -188.34483828 144.82170828 -189.87158203 143.78076172 C-191.61637316 142.56987751 -193.31385008 141.29129203 -195 140 C-195 139.34 -195 138.68 -195 138 C-193.11710434 136.49118957 -191.23466087 135.11506339 -189.25 133.75 C-188.63092773 133.31598877 -188.01185547 132.88197754 -187.37402344 132.43481445 C-185.25369338 130.95022088 -183.12687683 129.47519658 -181 128 C-177.74819037 125.73175403 -174.49910759 123.45961419 -171.25 121.1875 C-170.39970215 120.59364502 -169.5494043 119.99979004 -168.67333984 119.38793945 C-160.04631488 113.35358051 -151.5193242 107.1849807 -143 101 C-133.50388105 94.11464618 -123.98564455 87.26613447 -114.39208984 80.51708984 C-106.97053547 75.28892951 -99.61734946 69.967477 -92.26611328 64.64111328 C-88.513552 61.92351827 -84.75656581 59.21205527 -81 56.5 C-79.49997854 55.41669638 -77.99997854 54.33336304 -76.5 53.25 C-49.5 33.75 -49.5 33.75 -47.24926758 32.12451172 C-45.75165746 31.04287732 -44.25409874 29.96117177 -42.7565918 28.87939453 C-38.97044813 26.14447705 -35.18337545 23.41086281 -31.39453125 20.6796875 C-30.635354 20.13207764 -29.87617676 19.58446777 -29.09399414 19.02026367 C-27.58724302 17.93369377 -26.07992931 16.84790354 -24.57202148 15.76293945 C-20.90418252 13.11900346 -17.25625893 10.45327285 -13.640625 7.73828125 C-12.60844849 6.96701904 -12.60844849 6.96701904 -11.55541992 6.18017578 C-10.25931189 5.20940468 -8.9675401 4.23280766 -7.6809082 3.24951172 C-3.33378635 0 -3.33378635 0 0 0 Z " transform="translate(253,10)" style="fill: #FE331B;"/><path d="M0 0 C1.08990234 -0.01160156 2.17980469 -0.02320313 3.30273438 -0.03515625 C14.04673228 0.00314677 23.77591896 2.14478546 33.3125 7.125 C34.3341626 7.65105835 34.3341626 7.65105835 35.37646484 8.18774414 C44.24437529 12.89583319 50.07680257 18.6426542 55.0625 27.375 C55.47757812 28.096875 55.89265625 28.81875 56.3203125 29.5625 C58.52375196 33.87692691 59.25877102 37.30478665 59.1640625 42.1640625 C59.14939941 43.1432666 59.13473633 44.1224707 59.11962891 45.13134766 C59.10077637 45.87175293 59.08192383 46.6121582 59.0625 47.375 C53.76080036 47.57336551 48.46127635 47.71819949 43.15673828 47.81445312 C41.3542721 47.85458705 39.55206483 47.9091109 37.75048828 47.97851562 C22.70952698 48.54327839 22.70952698 48.54327839 18.62255859 45.64428711 C17.13042974 43.61000731 16.14080527 41.64377003 15.0625 39.375 C8.36096411 34.14780201 2.36827091 33.73423456 -5.9375 34.375 C-12.82907422 36.58550494 -16.92381864 42.14983 -20.1875 48.375 C-23.39476695 54.90206957 -24.25998453 61.15465263 -24.1875 68.3125 C-24.19523437 69.07240234 -24.20296875 69.83230469 -24.2109375 70.61523438 C-24.18129373 79.29344669 -22.30046832 86.45504087 -16.9375 93.375 C-16.36644531 94.1278125 -15.79539063 94.880625 -15.20703125 95.65625 C-11.78119366 99.42003288 -8.88226386 101.48070747 -3.78515625 101.98046875 C3.22675336 102.24747353 8.89859121 102.10676406 15.0625 98.375 C18.41383647 95.02366353 18.20560555 93.5163667 19.0625 88.375 C14.1125 88.045 9.1625 87.715 4.0625 87.375 C4.0625 78.795 4.0625 70.215 4.0625 61.375 C22.8725 61.375 41.6825 61.375 61.0625 61.375 C61.0625 84.475 61.0625 107.575 61.0625 131.375 C52.1525 131.375 43.2425 131.375 34.0625 131.375 C34.0625 128.405 34.0625 125.435 34.0625 122.375 C32.94875 123.2825 31.835 124.19 30.6875 125.125 C20.63527311 132.64200917 8.91556853 134.73289087 -3.375 134.625 C-4.69081055 134.63660156 -4.69081055 134.63660156 -6.03320312 134.6484375 C-23.4769468 134.59701895 -37.61766695 128.2743367 -49.90625 115.96655273 C-62.07938183 103.05624149 -67.10569415 86.70646817 -67.1875 69.3125 C-67.208125 68.24322266 -67.22875 67.17394531 -67.25 66.07226562 C-67.30166616 55.38382873 -65.20728301 45.73776381 -60.25 36.25 C-59.90114746 35.57259766 -59.55229492 34.89519531 -59.19287109 34.19726562 C-50.95473107 18.67538168 -38.03687345 8.3032107 -21.5012207 2.5234375 C-14.28148596 0.31666299 -7.51612753 -0.07972321 0 0 Z " transform="translate(200.9375,310.625)" style="fill: #070908;"/><path d="M0 0 C13.86 0 27.72 0 42 0 C50.02131141 21.77213096 50.02131141 21.77213096 52.3671875 28.57421875 C52.64419495 29.37183624 52.92120239 30.16945374 53.206604 30.99124146 C53.79453151 32.68415863 54.38176797 34.37731595 54.96832275 36.07070923 C56.5731388 40.70242116 58.1846897 45.3317863 59.796875 49.9609375 C60.1340152 50.92898819 60.4711554 51.89703888 60.81851196 52.89442444 C64.88166241 64.54756093 69.00140546 76.18064269 73.125 87.8125 C73.48430603 88.8262973 73.84361206 89.8400946 74.21380615 90.88461304 C74.91343195 92.85830332 75.61328543 94.83191291 76.31338501 96.80543518 C76.9746723 98.66997674 77.63531694 100.53474639 78.29525757 102.39976501 C79.70929412 106.39094686 81.1325819 110.37743791 82.60058594 114.34912109 C82.8386496 114.99797775 83.07671326 115.64683441 83.32199097 116.31535339 C83.93736106 117.9877192 84.55988598 119.65744774 85.18310547 121.3269043 C86 124 86 124 86 128 C72.8 128 59.6 128 46 128 C41 116 41 116 41 113 C27.47 113 13.94 113 0 113 C-0.66 115.97 -1.32 118.94 -2 122 C-2.66 123.98 -3.32 125.96 -4 128 C-17.53 128 -31.06 128 -45 128 C-42.75003681 117.87516563 -42.75003681 117.87516563 -41.39038086 114.13427734 C-40.9314016 112.8586644 -40.9314016 112.8586644 -40.46315002 111.55728149 C-40.13370895 110.65923798 -39.80426788 109.76119446 -39.46484375 108.8359375 C-38.93883827 107.38119522 -38.93883827 107.38119522 -38.40220642 105.89706421 C-37.252486 102.7211367 -36.09502737 99.54808949 -34.9375 96.375 C-34.13049621 94.15025581 -33.32402619 91.92531793 -32.51806641 89.70019531 C-30.8496403 85.09630932 -29.1782182 80.49352786 -27.50439453 75.89160156 C-25.0973919 69.27190759 -22.70116226 62.64836017 -20.30859375 56.0234375 C-19.55542677 53.93831133 -18.80225304 51.8531876 -18.04907227 49.76806641 C-17.68580841 48.7623761 -17.32254456 47.75668579 -16.94827271 46.72052002 C-11.31881224 31.13974084 -5.66455114 15.5680537 0 0 Z " transform="translate(404,314)" style="fill: #080A09;"/><path d="M0 0 C13.53 0 27.06 0 41 0 C43.124375 6.125625 45.24875 12.25125 47.4375 18.5625 C53.07087377 34.743201 58.79457964 50.88924357 64.625 67 C64.97842468 67.97691803 65.33184937 68.95383606 65.69598389 69.96035767 C69.40561196 80.20463827 73.14788426 90.4358147 76.96484375 100.640625 C77.27373535 101.46727661 77.58262695 102.29392822 77.90087891 103.14562988 C79.34028134 106.99464289 80.78581229 110.84115536 82.24267578 114.68359375 C82.74651227 116.02340253 83.25026139 117.36324417 83.75390625 118.703125 C84.40854858 120.43030762 84.40854858 120.43030762 85.07641602 122.19238281 C86 125 86 125 86 128 C72.47 128 58.94 128 45 128 C40 115 40 115 40 113 C26.8 113 13.6 113 0 113 C-0.99 116.96 -1.98 120.92 -3 125 C-3.495 126.485 -3.495 126.485 -4 128 C-17.53 128 -31.06 128 -45 128 C-44.32658399 123.28608795 -43.85318481 120.06571415 -42.28515625 115.81274414 C-41.93388672 114.84965836 -41.58261719 113.88657257 -41.22070312 112.89430237 C-40.64739258 111.35527504 -40.64739258 111.35527504 -40.0625 109.78515625 C-39.66353516 108.69778671 -39.26457031 107.61041718 -38.85351562 106.49009705 C-37.57544685 103.01182256 -36.28781233 99.53717713 -35 96.0625 C-34.16474951 93.79254393 -33.33010869 91.52236344 -32.49609375 89.25195312 C-28.48602972 78.35130745 -24.43004064 67.46846107 -20.33984375 56.59765625 C-16.62287143 46.7145069 -13.00318585 36.79938186 -9.44946289 26.85644531 C-8.53921217 24.30984792 -7.62623017 21.76424105 -6.71289062 19.21875 C-6.12224353 17.57036707 -5.53174273 15.9219317 -4.94140625 14.2734375 C-4.6737294 13.52661713 -4.40605255 12.77979675 -4.13026428 12.01034546 C-3.87917404 11.30745392 -3.6280838 10.60456238 -3.36938477 9.88037109 C-3.15226334 9.27325287 -2.93514191 8.66613464 -2.71144104 8.0406189 C-1.78028346 5.36978934 -0.89444871 2.68334613 0 0 Z " transform="translate(55,314)" style="fill: #080A09;"/><path d="M0 0 C32.34 0 64.68 0 98 0 C98 11.55 98 23.1 98 35 C79.19 35 60.38 35 41 35 C41 40.94 41 46.88 41 53 C55.85 53 70.7 53 86 53 C86 63.23 86 73.46 86 84 C71.15 84 56.3 84 41 84 C41 98.52 41 113.04 41 128 C27.47 128 13.94 128 0 128 C0 85.76 0 43.52 0 0 Z " transform="translate(276,314)" style="fill: #090B0A;"/><path d="M0 0 C1.49606968 0.02010759 2.99216564 0.03835079 4.48828125 0.0546875 C8.11774238 0.09831885 11.74619819 0.16710697 15.375 0.25 C13.58332631 6.96779536 11.6883383 13.63051978 9.5625 20.25 C9.03509681 21.90623107 8.50775481 23.56248163 7.98046875 25.21875 C7.71411621 26.05277344 7.44776367 26.88679688 7.17333984 27.74609375 C5.89845593 31.74462874 4.63719407 35.74744512 3.375 39.75 C2.88288281 41.30861595 2.39069491 42.86720958 1.8984375 44.42578125 C1.6519043 45.20646973 1.40537109 45.9871582 1.15136719 46.79150391 C-1.10742188 53.94433594 -3.36621094 61.09716797 -5.625 68.25 C-13.875 68.25 -22.125 68.25 -30.625 68.25 C-29.635 64.95 -28.645 61.65 -27.625 58.25 C-26.94141589 55.5876198 -26.26835247 52.92238717 -25.625 50.25 C-29.64724534 50.2437047 -33.66594362 50.30354536 -37.6875 50.375 C-38.82123047 50.37242187 -39.95496094 50.36984375 -41.12304688 50.3671875 C-47.57863415 50.51775513 -51.67741961 50.95654759 -56.31054688 55.65698242 C-57.60212055 57.22227184 -58.83100144 58.82478756 -60.0625 60.4375 C-64.09618596 64.8647163 -67.87139376 66.09796039 -73.80859375 66.42578125 C-76.75457354 66.43619107 -79.68227801 66.38242249 -82.625 66.25 C-82.625 63.61 -82.625 60.97 -82.625 58.25 C-81.86316406 58.03085938 -81.10132812 57.81171875 -80.31640625 57.5859375 C-62.87969718 52.23084333 -53.62465618 41.06916298 -44.60131836 25.82446289 C-33.20650376 6.63287578 -22.28718687 -0.52463731 0 0 Z " transform="translate(190.625,106.75)" style="fill: #FDFBFB;"/><path d="M0 0 C0.99 0.66 1.98 1.32 3 2 C3.66 0.68 4.32 -0.64 5 -2 C11.27 -2 17.54 -2 24 -2 C23.0715908 2.19503418 22.14247383 6.38950925 21.203125 10.58203125 C20.38082568 14.26283172 19.58230116 17.94788471 18.796875 21.63671875 C12.33119934 51.64395303 12.33119934 51.64395303 3 60 C-8.06391427 66.78758943 -17.09634417 68.4883661 -29.70068359 65.6159668 C-34.17665519 64.5385589 -38.62919416 63.45693528 -43 62 C-41.08447595 55.36933984 -41.08447595 55.36933984 -38 53 C-35.90709823 53.1687824 -33.81364253 53.35625285 -31.734375 53.6484375 C-22.563433 54.96805952 -22.563433 54.96805952 -13.75390625 52.94140625 C-9.35543936 49.45100994 -7.19239659 45.0863601 -5 40 C-6.11375 40.33 -7.2275 40.66 -8.375 41 C-16.62356563 43.02213514 -24.25451978 42.56537978 -32 39 C-37.24556423 35.73609337 -39.29788014 31.40423973 -42 26 C-42.89532718 17.80136111 -42.169974 11.56339269 -37 5 C-26.60175203 -6.26271039 -13.27358217 -6.23835594 0 0 Z " transform="translate(245,132)" style="fill: #FCF9F7;"/><path d="M0 0 C1.96241887 0.97736156 3.77663697 2.05266139 5.6171875 3.2421875 C6.94792577 3.99678238 8.28116192 4.74699395 9.6171875 5.4921875 C10.6071875 6.0696875 11.5971875 6.6471875 12.6171875 7.2421875 C12.9471875 5.2621875 13.2771875 3.2821875 13.6171875 1.2421875 C20.2171875 1.2421875 26.8171875 1.2421875 33.6171875 1.2421875 C33.00328285 5.53952008 32.4401245 9.31348732 31.34765625 13.4296875 C30.97664795 14.83915649 30.97664795 14.83915649 30.59814453 16.27709961 C30.33630371 17.25557861 30.07446289 18.23405762 29.8046875 19.2421875 C29.53769043 20.25224854 29.27069336 21.26230957 28.99560547 22.30297852 C28.20670522 25.28376908 27.4125255 28.26310916 26.6171875 31.2421875 C26.18859183 32.8554129 25.7601862 34.46868882 25.33203125 36.08203125 C24.43245448 39.47022739 23.52479919 42.85609772 22.6171875 46.2421875 C16.6771875 46.2421875 10.7371875 46.2421875 4.6171875 46.2421875 C4.6171875 44.5921875 4.6171875 42.9421875 4.6171875 41.2421875 C2.7609375 41.7371875 2.7609375 41.7371875 0.8671875 42.2421875 C-7.12773345 43.97966638 -15.40251593 44.77756883 -22.6953125 40.5234375 C-26.01652923 38.00177295 -28.50956167 34.98868916 -30.3828125 31.2421875 C-30.98819247 22.3710426 -31.47520713 14.10787963 -25.54296875 7.0546875 C-18.25197811 -0.5485802 -10.59595433 -3.36986089 0 0 Z " transform="translate(346.3828125,128.7578125)" style="fill: #FCF9F7;"/><path d="M0 0 C0.78375 0.00451172 1.5675 0.00902344 2.375 0.01367188 C4.29170014 0.02535907 6.20836048 0.04329092 8.125 0.0625 C8.125 3.3625 8.125 6.6625 8.125 10.0625 C7.03960937 10.22105469 5.95421875 10.37960938 4.8359375 10.54296875 C3.39045881 10.77762438 1.945155 11.01335903 0.5 11.25 C-0.21285156 11.35119141 -0.92570312 11.45238281 -1.66015625 11.55664062 C-7.08417366 12.47723074 -10.0140018 14.10733111 -13.875 18.0625 C-14.96348535 19.98337042 -14.96348535 19.98337042 -15.25 21.875 C-15.45625 22.926875 -15.6625 23.97875 -15.875 25.0625 C-13.895 25.0625 -11.915 25.0625 -9.875 25.0625 C-9.75 30.8125 -9.75 30.8125 -10.875 33.0625 C-14.175 33.0625 -17.475 33.0625 -20.875 33.0625 C-20.97941406 34.15433594 -21.08382813 35.24617188 -21.19140625 36.37109375 C-21.86724908 41.76714644 -23.33579514 46.90164349 -24.8125 52.125 C-25.07740234 53.07955078 -25.34230469 54.03410156 -25.61523438 55.01757812 C-27.01190663 60.03936002 -28.44302602 65.05059107 -29.875 70.0625 C-36.145 70.0625 -42.415 70.0625 -48.875 70.0625 C-47.75087649 62.19363544 -47.75087649 62.19363544 -46.7890625 58.86328125 C-46.58176514 58.13415527 -46.37446777 57.4050293 -46.16088867 56.65380859 C-45.94279541 55.90180176 -45.72470215 55.14979492 -45.5 54.375 C-45.04955869 52.79071167 -44.60034365 51.20607418 -44.15234375 49.62109375 C-43.93433105 48.85007324 -43.71631836 48.07905273 -43.49169922 47.28466797 C-42.18332912 42.57018474 -41.0220072 37.81838353 -39.875 33.0625 C-42.845 33.0625 -45.815 33.0625 -48.875 33.0625 C-48.545 30.4225 -48.215 27.7825 -47.875 25.0625 C-44.245 24.7325 -40.615 24.4025 -36.875 24.0625 C-36.57207031 23.26585937 -36.26914062 22.46921875 -35.95703125 21.6484375 C-32.38774374 12.6208857 -30.15105087 7.27666297 -20.9375 3.25 C-13.88562626 0.4383497 -7.49073371 -0.08252503 0 0 Z " transform="translate(324.875,104.9375)" style="fill: #FCF8F6;"/><path d="M0 0 C-0.99 0 -1.98 0 -3 0 C-3 0.66 -3 1.32 -3 2 C-2.34 2.33 -1.68 2.66 -1 3 C3.47692708 12.70000867 -2.14996025 25.25865319 -5 35 C-5.27328125 35.94746094 -5.5465625 36.89492187 -5.828125 37.87109375 C-7 40 -7 40 -9.109375 40.890625 C-9.98078125 41.00921875 -10.8521875 41.1278125 -11.75 41.25 C-13.20986328 41.45302734 -13.20986328 41.45302734 -14.69921875 41.66015625 C-31.26790972 43.36604514 -31.26790972 43.36604514 -34 42 C-35.485 42.495 -35.485 42.495 -37 43 C-37.33 41.68 -37.66 40.36 -38 39 C-38.99 40.32 -39.98 41.64 -41 43 C-41.99 42.67 -42.98 42.34 -44 42 C-43.6299585 41.52038818 -43.25991699 41.04077637 -42.87866211 40.54663086 C-39.18211313 35.6959 -35.81632561 30.71747015 -32.5625 25.5625 C-13.18735747 -4.67938491 -13.18735747 -4.67938491 0 0 Z " transform="translate(178,108)" style="fill: #FBF4F2;"/><path d="M0 0 C4.57372254 2.35523918 8.09241564 5.13427758 10 10 C10.87660659 14.90899691 10.38392513 19.0132815 7.9375 23.375 C5.22851706 27.20573081 2.57407156 28.73818716 -2 30 C-6.38402862 30.53838948 -8.37138143 30.35057574 -12.25 28.1875 C-16.24434388 25.01018101 -18.52252267 23.0006925 -20 18 C-20.64380166 12.20578506 -19.55344378 8.48622277 -16 4 C-11.20593846 -0.45162858 -6.2892178 -1.29654644 0 0 Z " transform="translate(344,137)" style="fill: #FC361E;"/><path d="M0 0 C4.79642058 2.39821029 7.60178971 5.20357942 10 10 C10.65606763 14.13322607 10.96334653 16.41203202 8.7890625 19.99609375 C6.18605704 23.17387453 3.84791628 25.43724473 0 27 C-4.77667642 27.46225901 -7.01903323 27.49973779 -11.3125 25.3125 C-15.10304535 22.05086795 -17.74201084 18.27030461 -18.3125 13.25 C-17.79807878 7.90001927 -15.23004185 5.06230887 -11.25 1.625 C-7.26245631 -0.36877185 -4.37028828 -0.8565765 0 0 Z " transform="translate(232,138)" style="fill: #FB371E;"/><path d="M0 0 C2.33481083 3.50221625 3.37378416 7.04011922 4.56640625 11.02734375 C4.80536118 11.81266983 5.0443161 12.59799591 5.29051208 13.40711975 C6.05248735 15.9158652 6.80744625 18.42666382 7.5625 20.9375 C8.07443696 22.62448037 8.5868019 24.31133092 9.09960938 25.99804688 C12.80392575 38.21570301 12.80392575 38.21570301 14 43 C5.75 43 -2.5 43 -11 43 C-9.8759827 34.00786164 -9.8759827 34.00786164 -8.94921875 30.84375 C-8.7471582 30.13855225 -8.54509766 29.43335449 -8.33691406 28.70678711 C-8.0154541 27.61442749 -8.0154541 27.61442749 -7.6875 26.5 C-5.72200541 19.65448362 -3.9048265 12.79222833 -2.2565918 5.86328125 C-1.10414037 1.10414037 -1.10414037 1.10414037 0 0 Z " transform="translate(424,357)" style="fill: #EFEFEF;"/><path d="M0 0 C0.66 0 1.32 0 2 0 C3.71668675 5.05113769 5.42545248 10.10485934 7.12695312 15.16113281 C7.70681638 16.88061545 8.28883229 18.59937371 8.87304688 20.31738281 C9.71271535 22.78783598 10.54459185 25.2607961 11.375 27.734375 C11.63748535 28.50118591 11.8999707 29.26799683 12.17041016 30.05804443 C13.34520915 33.58096405 14 36.2474525 14 40 C5.75 40 -2.5 40 -11 40 C-8.89562908 31.42663699 -6.73410735 22.88189703 -4.375 14.375 C-4.06622925 13.25762451 -4.06622925 13.25762451 -3.7512207 12.11767578 C-2.61066702 8.03681259 -1.37837705 4.00867453 0 0 Z " transform="translate(73,360)" style="fill: #F1F1F1;"/><path d="M0 0 C-5.14369256 23.09189641 -5.14369256 23.09189641 -8 29 C-10.88265149 29.96088383 -12.67662271 30.11670941 -15.66796875 30.09765625 C-16.56064453 30.09443359 -17.45332031 30.09121094 -18.37304688 30.08789062 C-19.76620117 30.07532227 -19.76620117 30.07532227 -21.1875 30.0625 C-22.12787109 30.05798828 -23.06824219 30.05347656 -24.03710938 30.04882812 C-26.35813712 30.03704626 -28.67903644 30.02059558 -31 30 C-25.78523579 21.74586139 -20.56925011 13.49734476 -14.875 5.5625 C-14.41867188 4.92441406 -13.96234375 4.28632812 -13.4921875 3.62890625 C-9.55321502 -0.67096685 -5.49189916 -0.18306331 0 0 Z " transform="translate(179,119)" style="fill: #FB361E;"/><path d="M0 0 C0.625 1.875 0.625 1.875 1 4 C0.34 4.66 -0.32 5.32 -1 6 C-0.01 6.66 0.98 7.32 2 8 C1.67 7.01 1.34 6.02 1 5 C1.66 4.67 2.32 4.34 3 4 C3 4.66 3 5.32 3 6 C4.32 6.33 5.64 6.66 7 7 C6.32904297 7.54527344 6.32904297 7.54527344 5.64453125 8.1015625 C2.61311216 10.62235876 -0.10302923 12.9975896 -2.4375 16.1875 C-6.47118596 20.6147163 -10.24639376 21.84796039 -16.18359375 22.17578125 C-19.12957354 22.18619107 -22.05727801 22.13242249 -25 22 C-25 19.36 -25 16.72 -25 14 C-23.85724609 13.67128906 -23.85724609 13.67128906 -22.69140625 13.3359375 C-13.83284179 10.61532969 -6.23776996 7.05139212 0 0 Z " transform="translate(133,151)" style="fill: #FAF4F2;"/><path d="M0 0 C2.015625 1.21484375 2.015625 1.21484375 4.25 2.9375 C8.40629805 5.82475066 10.84211028 6.84401832 16 6 C18.75592379 5.13816518 21.33155814 4.12355447 24 3 C24 3.66 24 4.32 24 5 C23.34 5 22.68 5 22 5 C22.33 5.99 22.66 6.98 23 8 C23.99 8.33 24.98 8.66 26 9 C25.67 9.99 25.34 10.98 25 12 C25 11.34 25 10.68 25 10 C23.7625 10.33 22.525 10.66 21.25 11 C13.11031116 12.76894025 4.96616574 13.46835012 -2.44140625 9.15625 C-4.41638035 7.69110631 -5.78071105 6.13375566 -7 4 C-5.68 3.67 -4.36 3.34 -3 3 C-3 2.34 -3 1.68 -3 1 C-2.01 0.67 -1.02 0.34 0 0 Z " transform="translate(326,160)" style="fill: #FAF0EC;"/><path d="M0 0 C0.66 1.32 1.32 2.64 2 4 C2.99 4 3.98 4 5 4 C6.6875 5.5 6.6875 5.5 8 7 C8 6.01 8 5.02 8 4 C8.66 4 9.32 4 10 4 C8.125 9.75 8.125 9.75 7 12 C6.34 12 5.68 12 5 12 C4.34 12.66 3.68 13.32 3 14 C2.67 13.67 2.34 13.34 2 13 C2 13.99 2 14.98 2 16 C1.01 16 0.02 16 -1 16 C-1 15.01 -1 14.02 -1 13 C-1.66 13 -2.32 13 -3 13 C-3 14.65 -3 16.3 -3 18 C-3.66 18 -4.32 18 -5 18 C-4.38388165 13.68068613 -3.35761422 9.74791225 -1.9375 5.625 C-1.39416016 4.03558594 -1.39416016 4.03558594 -0.83984375 2.4140625 C-0.56269531 1.61742187 -0.28554687 0.82078125 0 0 Z " transform="translate(197,134)" style="fill: #FA381F;"/><path d="M0 0 C1.73046875 1.51953125 1.73046875 1.51953125 3 3 C1.20843648 3.16777183 -0.5832545 3.33418294 -2.375 3.5 C-3.37273437 3.5928125 -4.37046875 3.685625 -5.3984375 3.78125 C-8 4 -8 4 -10 4 C-12.00212229 4.32033957 -14.00239695 4.65259077 -16 5 C-16.103125 5.61875 -16.20625 6.2375 -16.3125 6.875 C-17 9 -17 9 -20 11 C-20.23570226 13.23570226 -20.23570226 13.23570226 -18 15 C-19.98 15 -21.96 15 -24 15 C-23.9327411 11.63705501 -23.77052972 8.99228101 -21.65625 6.26953125 C-15.37643604 0.48924794 -8.32469217 -0.70548239 0 0 Z " transform="translate(333,115)" style="fill: #F73B24;"/><path d="M0 0 C0.66 0 1.32 0 2 0 C2 0.99 2 1.98 2 3 C2.66 3 3.32 3 4 3 C6 5 6 5 7 8 C9.97 8 12.94 8 16 8 C15.67 8.99 15.34 9.98 15 11 C15 10.34 15 9.68 15 9 C11.04 9 7.08 9 3 9 C2.67 10.65 2.34 12.3 2 14 C-0.475 13.01 -0.475 13.01 -3 12 C-2.14285714 3.42857143 -2.14285714 3.42857143 0 0 Z " transform="translate(269,130)" style="fill: #F93B25;"/><path d="M0 0 C3.125 2 3.125 2 5 4 C-0.67573523 6.92941173 -6.96066243 6.71183038 -13 5 C-12.625 3.0625 -12.625 3.0625 -12 1 C-8.30765648 -0.84617176 -4.02982407 -0.48712159 0 0 Z " transform="translate(344,137)" style="fill: #FC3016;"/><path d="M0 0 C1 2 1 2 2 5 C2.350625 5.680625 2.70125 6.36125 3.0625 7.0625 C4.43324368 11.35749686 4.15630348 15.52798374 4 20 C0.26933078 17.34926135 -1.82689955 15.4791108 -3 11 C-3.48798993 6.31529665 -2.70767446 3.83587215 0 0 Z M-1 7 C-0.67 7.99 -0.34 8.98 0 10 C0 9.34 0 8.68 0 8 C0.66 7.67 1.32 7.34 2 7 C1.01 7 0.02 7 -1 7 Z " transform="translate(217,143)" style="fill: #F7442D;"/><path d="M0 0 C0.66 0.33 1.32 0.66 2 1 C1.01 2.485 1.01 2.485 0 4 C-0.99 4 -1.98 4 -3 4 C-3.08636719 4.60585937 -3.17273438 5.21171875 -3.26171875 5.8359375 C-4.21221242 8.62204063 -5.29218508 9.17546823 -7.8125 10.625 C-8.49957031 11.02976563 -9.18664062 11.43453125 -9.89453125 11.8515625 C-11.29689231 12.61648671 -12.71686553 13.34997609 -14.15234375 14.05078125 C-16.19454857 15.09994778 -17.49876904 16.2735844 -19 18 C-19 18.33 -19 18.66 -19 19 C-20.65 19 -22.3 19 -24 19 C-21.32938148 16.22311842 -18.60228406 13.847443 -15.48828125 11.58203125 C-14.64845703 10.96779297 -13.80863281 10.35355469 -12.94335938 9.72070312 C-11.64108398 8.77614258 -11.64108398 8.77614258 -10.3125 7.8125 C-8.5789411 6.54884351 -6.84584272 5.28455493 -5.11328125 4.01953125 C-4.34798096 3.46370361 -3.58268066 2.90787598 -2.79418945 2.33520508 C-1.07448443 1.12285649 -1.07448443 1.12285649 0 0 Z " transform="translate(431,157)" style="fill: #F9E4DD;"/><path d="M0 0 C0.66 0 1.32 0 2 0 C1.67 1.32 1.34 2.64 1 4 C1.66 4.33 2.32 4.66 3 5 C3.33 4.01 3.66 3.02 4 2 C4.99 2.33 5.98 2.66 7 3 C1.79529412 8.39058824 1.79529412 8.39058824 -1 10 C-4.03884627 9.8517636 -5.50206293 9.42925609 -7.8125 7.4375 C-8.204375 6.963125 -8.59625 6.48875 -9 6 C-5.94736336 5.01879536 -4.05263664 5.01879536 -1 6 C-1.33 5.01 -1.66 4.02 -2 3 C-1.34 2.01 -0.68 1.02 0 0 Z " transform="translate(253,280)" style="fill: #FA3B24;"/><path d="M0 0 C0.33 0 0.66 0 1 0 C1.33 2.31 1.66 4.62 2 7 C1.34 7 0.68 7 0 7 C0 7.99 0 8.98 0 10 C0.66 10 1.32 10 2 10 C2 14 2 14 0 16 C-0.6425235 18.06874034 -0.6425235 18.06874034 -1 20 C-1.33 19.34 -1.66 18.68 -2 18 C-2.66 18.66 -3.32 19.32 -4 20 C-3.21085905 13.21338787 -1.58725189 6.63850633 0 0 Z " transform="translate(300,152)" style="fill: #F84833;"/><path d="M0 0 C0.33 0 0.66 0 1 0 C1 3.66666667 1 7.33333333 1 11 C1.30404678 12.67225729 1.63128912 14.34080104 2 16 C1.01 16 0.02 16 -1 16 C-1 15.01 -1 14.02 -1 13 C-1.66 13 -2.32 13 -3 13 C-3 14.65 -3 16.3 -3 18 C-3.66 18 -4.32 18 -5 18 C-4.38388165 13.68068613 -3.35761422 9.74791225 -1.9375 5.625 C-1.39416016 4.03558594 -1.39416016 4.03558594 -0.83984375 2.4140625 C-0.56269531 1.61742187 -0.28554687 0.82078125 0 0 Z M1 9 C1.99 9.495 1.99 9.495 3 10 C2.67 10.66 2.34 11.32 2 12 C1.67 11.01 1.34 10.02 1 9 Z " transform="translate(197,134)" style="fill: #F7422F;"/><path d="M0 0 C0.66 0 1.32 0 2 0 C2.99 1.98 3.98 3.96 5 6 C4.01 7.32 3.02 8.64 2 10 C-0.64 8.02 -3.28 6.04 -6 4 C-4 3 -4 3 -1 4 C-0.67 2.68 -0.34 1.36 0 0 Z " transform="translate(107,177)" style="fill: #F93C27;"/><path d="M0 0 C0.33 0 0.66 0 1 0 C1.33 1.65 1.66 3.3 2 5 C2.33 4.34 2.66 3.68 3 3 C4.9375 2.25 4.9375 2.25 7 2 C7.66 2.66 8.32 3.32 9 4 C4.25 9.75 4.25 9.75 2 12 C-0.36889021 7.26221957 -1.04875255 5.36029082 0 0 Z " transform="translate(315,130)" style="fill: #F7402D;"/><path d="M0 0 C2 4 2 4 2 6 C1.34 6.66 0.68 7.32 0 8 C7.26 8.33 14.52 8.66 22 9 C22 9.33 22 9.66 22 10 C13.75 10 5.5 10 -3 10 C-2.01 6.7 -1.02 3.4 0 0 Z " transform="translate(163,165)" style="fill: #F8D8CF;"/><path d="M0 0 C0.99 0.33 1.98 0.66 3 1 C1.71502463 3.56995074 0.50087627 3.90434463 -2.0625 5.125 C-2.79597656 5.47820312 -3.52945313 5.83140625 -4.28515625 6.1953125 C-4.85105469 6.46085938 -5.41695312 6.72640625 -6 7 C-5.7215625 7.928125 -5.7215625 7.928125 -5.4375 8.875 C-5 11 -5 11 -6 13 C-8.5 11.625 -8.5 11.625 -11 10 C-11 9.34 -11 8.68 -11 8 C-8.69921875 6.01953125 -8.69921875 6.01953125 -5.6875 3.8125 C-4.70136719 3.07644531 -3.71523437 2.34039062 -2.69921875 1.58203125 C-1.36310547 0.79892578 -1.36310547 0.79892578 0 0 Z " transform="translate(69,140)" style="fill: #F44128;"/><path d="M0 0 C0.99 0.33 1.98 0.66 3 1 C2.33333333 2.33333333 1.66666667 3.66666667 1 5 C0.32650839 6.66392045 -0.3409159 8.33032028 -1 10 C-1.66 10 -2.32 10 -3 10 C-3.33 9.01 -3.66 8.02 -4 7 C-4.99 6.34 -5.98 5.68 -7 5 C-5.90554162 4.13342884 -4.79902219 3.28207276 -3.6875 2.4375 C-3.07261719 1.96183594 -2.45773438 1.48617187 -1.82421875 0.99609375 C-1.22222656 0.66738281 -0.62023437 0.33867188 0 0 Z " transform="translate(214,36)" style="fill: #FB3925;"/><path d="M0 0 C4.20233434 2.41952583 8.07927649 5.15555353 12 8 C10.68 8.33 9.36 8.66 8 9 C8 8.34 8 7.68 8 7 C6.6078125 7.1546875 6.6078125 7.1546875 5.1875 7.3125 C4.135625 7.209375 3.08375 7.10625 2 7 C0.0625 4.625 0.0625 4.625 -1 2 C-0.67 1.34 -0.34 0.68 0 0 Z " transform="translate(382,107)" style="fill: #F6412A;"/><path d="M0 0 C2.475 0.99 2.475 0.99 5 2 C5 3.98 5 5.96 5 8 C4.67 7.01 4.34 6.02 4 5 C1.66924071 5.95865509 1.66924071 5.95865509 0 9 C-0.33 8.67 -0.66 8.34 -1 8 C-0.82364548 5.30917128 -0.38164079 2.67148554 0 0 Z " transform="translate(202,118)" style="fill: #FA3C22;"/><path d="M0 0 C2.38564077 0.57584432 4.66682784 1.22227595 7 2 C6.67 3.65 6.34 5.3 6 7 C2.73045798 6.43628586 1.17424117 5.50037734 -1 3 C-0.67 2.01 -0.34 1.02 0 0 Z " transform="translate(353,129)" style="fill: #F73D24;"/><path d="M0 0 C3.63 2.31 7.26 4.62 11 7 C9.02 7.99 9.02 7.99 7 9 C6.4225 8.360625 5.845 7.72125 5.25 7.0625 C3.01937599 5.01776132 1.92563609 4.41794801 -1 4 C-0.67 2.68 -0.34 1.36 0 0 Z " transform="translate(317,59)" style="fill: #F73B24;"/><path d="M0 0 C0.66 1.32 1.32 2.64 2 4 C0.68 4 -0.64 4 -2 4 C-2 4.99 -2 5.98 -2 7 C-4.64 7.33 -7.28 7.66 -10 8 C-6.88983545 4.71211176 -3.98381075 2.16264012 0 0 Z " transform="translate(194,51)" style="fill: #F63F2D;"/><path d="M0 0 C0.99 0.33 1.98 0.66 3 1 C2.34 2.65 1.68 4.3 1 6 C-0.65 5.67 -2.3 5.34 -4 5 C-4.66 6.32 -5.32 7.64 -6 9 C-6.99 8.34 -7.98 7.68 -9 7 C-7.57277341 5.8001722 -6.13284224 4.6154424 -4.6875 3.4375 C-3.88699219 2.77621094 -3.08648437 2.11492187 -2.26171875 1.43359375 C-1.51535156 0.96050781 -0.76898438 0.48742187 0 0 Z " transform="translate(366,205)" style="fill: #F9EBE5;"/><path d="M0 0 C0.99 0 1.98 0 3 0 C4.30267176 5.50016964 3.71033431 10.47032059 3 16 C2.67 16 2.34 16 2 16 C1.92652344 14.96939453 1.92652344 14.96939453 1.8515625 13.91796875 C1.77679688 13.01691406 1.70203125 12.11585938 1.625 11.1875 C1.55539062 10.29417969 1.48578125 9.40085938 1.4140625 8.48046875 C1.13354964 5.75601501 1.13354964 5.75601501 -1 3 C-0.67 2.01 -0.34 1.02 0 0 Z " transform="translate(313,140)" style="fill: #F7513B;"/><path d="M0 0 C0.99 0.33 1.98 0.66 3 1 C2.3203125 2.890625 2.3203125 2.890625 1 5 C-1.3828125 6.046875 -1.3828125 6.046875 -4.125 6.75 C-5.03507812 6.99234375 -5.94515625 7.2346875 -6.8828125 7.484375 C-7.93082031 7.73960937 -7.93082031 7.73960937 -9 8 C-2.92207792 1.75324675 -2.92207792 1.75324675 0 0 Z " transform="translate(276,271)" style="fill: #FAE7E4;"/><path d="M0 0 C0 1.65 0 3.3 0 5 C-6.625 7.125 -6.625 7.125 -10 6 C-8.52270825 4.99723227 -7.04311423 3.99785546 -5.5625 3 C-4.73878906 2.443125 -3.91507813 1.88625 -3.06640625 1.3125 C-1 0 -1 0 0 0 Z " transform="translate(242,17)" style="fill: #F73F2A;"/><path d="M0 0 C2 1 2 1 2 1 Z M-2 1 C1.3 1.33 4.6 1.66 8 2 C8 2.66 8 3.32 8 4 C7.01 4.495 7.01 4.495 6 5 C6.99 6.485 6.99 6.485 8 8 C3.56541027 6.6062718 1.12621626 4.39417765 -2 1 Z " transform="translate(230,273)" style="fill: #F5442D;"/><path d="M0 0 C1.65 0.33 3.3 0.66 5 1 C2.19195732 3.96404505 -0.18315774 6.44499019 -4 8 C-4.33 7.01 -4.66 6.02 -5 5 C-3.68 4.67 -2.36 4.34 -1 4 C-0.67 2.68 -0.34 1.36 0 0 Z " transform="translate(289,257)" style="fill: #F73E27;"/><path d="M0 0 C0.33 0.66 0.66 1.32 1 2 C0.34 2 -0.32 2 -1 2 C-0.67 2.99 -0.34 3.98 0 5 C0.99 5.33 1.98 5.66 3 6 C2.67 6.99 2.34 7.98 2 9 C2 8.34 2 7.68 2 7 C0.88625 6.896875 -0.2275 6.79375 -1.375 6.6875 C-3.169375 6.3471875 -3.169375 6.3471875 -5 6 C-5.66 5.01 -6.32 4.02 -7 3 C-4.69 2.01 -2.38 1.02 0 0 Z " transform="translate(349,163)" style="fill: #F8EAE1;"/><path d="M0 0 C0.66 0.99 1.32 1.98 2 3 C0.3125 5.0625 0.3125 5.0625 -2 7 C-4.75 6.75 -4.75 6.75 -7 6 C-2.25 1.125 -2.25 1.125 0 0 Z " transform="translate(109,112)" style="fill: #F73B26;"/><path d="M0 0 C0.33 1.32 0.66 2.64 1 4 C-2.20336822 6.83374881 -4.78087253 7.5205537 -9 8 C-6.14723863 5.06799526 -3.34920216 2.35684596 0 0 Z " transform="translate(347,219)" style="fill: #F9EAE5;"/><path d="M0 0 C0.33 0.99 0.66 1.98 1 3 C-1.25 3.75 -1.25 3.75 -4 4 C-6.3125 2.0625 -6.3125 2.0625 -8 0 C-4.71023192 -1.09658936 -3.28696233 -0.79953138 0 0 Z " transform="translate(252,286)" style="fill: #F6442F;"/><path d="M0 0 C9.01531729 -0.63019694 9.01531729 -0.63019694 13.125 2 C13.74375 2.66 14.3625 3.32 15 4 C13.25 4.6875 13.25 4.6875 11 5 C10.401875 4.54625 9.80375 4.0925 9.1875 3.625 C6.24276892 1.43748548 3.59561853 1.34573255 0 1 C0 0.67 0 0.34 0 0 Z " transform="translate(334,137)" style="fill: #F64F3D;"/><path d="M0 0 C4.04420651 1.77945087 7.46078487 4.39529673 11 7 C9.02 7.99 9.02 7.99 7 9 C6.67 8.01 6.34 7.02 6 6 C5.175 5.690625 4.35 5.38125 3.5 5.0625 C2.675 4.711875 1.85 4.36125 1 4 C0.1875 1.875 0.1875 1.875 0 0 Z " transform="translate(410,128)" style="fill: #F3422B;"/><path d="M0 0 C1.48285242 0.95262034 2.96118201 1.91228405 4.4375 2.875 C5.67306641 3.67550781 5.67306641 3.67550781 6.93359375 4.4921875 C9 6 9 6 10 8 C7.36 7.34 4.72 6.68 2 6 C2 5.34 2 4.68 2 4 C1.34 4 0.68 4 0 4 C0 2.68 0 1.36 0 0 Z " transform="translate(354,86)" style="fill: #F63E29;"/><path d="M0 0 C0.66 0.33 1.32 0.66 2 1 C2 1.66 2 2.32 2 3 C1.01 3.495 1.01 3.495 0 4 C-0.33 4.99 -0.66 5.98 -1 7 C-1 6.34 -1 5.68 -1 5 C-4.0745356 5.7763932 -4.0745356 5.7763932 -6 8 C-6.66 7.34 -7.32 6.68 -8 6 C-5.36 4.02 -2.72 2.04 0 0 Z " transform="translate(142,88)" style="fill: #F53F2C;"/><path d="M0 0 C-1.75 5.75 -1.75 5.75 -4 8 C-4.33 6.02 -4.66 4.04 -5 2 C-5.99 1.67 -6.98 1.34 -8 1 C-5.23735711 0.40267181 -2.83967231 0 0 0 Z " transform="translate(240,172)" style="fill: #F64F3E;"/><path d="M0 0 C1.11375 0.598125 2.2275 1.19625 3.375 1.8125 C4.31472656 2.31716797 4.31472656 2.31716797 5.2734375 2.83203125 C7 4 7 4 9 7 C8.01 7 7.02 7 6 7 C6 6.34 6 5.68 6 5 C5.34 5 4.68 5 4 5 C3.67 5.66 3.34 6.32 3 7 C3 6.34 3 5.68 3 5 C2.01 5 1.02 5 0 5 C0 3.35 0 1.7 0 0 Z " transform="translate(421,136)" style="fill: #F73F2A;"/><path d="M0 0 C-2.02243866 1.58905894 -3.81460406 2.9205446 -6.1875 3.9375 C-8.20746992 4.85973865 -8.20746992 4.85973865 -8.75 7.125 C-8.8325 7.74375 -8.915 8.3625 -9 9 C-9.66 9 -10.32 9 -11 9 C-8.95145092 1.90886858 -7.67109219 -0.51140615 0 0 Z " transform="translate(213,185)" style="fill: #F7E5DC;"/><path d="M0 0 C1.37478516 0.01740234 1.37478516 0.01740234 2.77734375 0.03515625 C3.69644531 0.04417969 4.61554688 0.05320313 5.5625 0.0625 C6.27277344 0.07410156 6.98304688 0.08570313 7.71484375 0.09765625 C6.72484375 0.42765625 5.73484375 0.75765625 4.71484375 1.09765625 C4.71484375 1.75765625 4.71484375 2.41765625 4.71484375 3.09765625 C1.83984375 3.22265625 1.83984375 3.22265625 -1.28515625 3.09765625 C-1.94515625 2.43765625 -2.60515625 1.77765625 -3.28515625 1.09765625 C-2.28515625 0.09765625 -2.28515625 0.09765625 0 0 Z " transform="translate(334.28515625,137.90234375)" style="fill: #F73C24;"/><path d="M0 0 C0.99 0.33 1.98 0.66 3 1 C-1.625 5.875 -1.625 5.875 -5 7 C-5 6.01 -5 5.02 -5 4 C-4.34 4 -3.68 4 -3 4 C-3 3.34 -3 2.68 -3 2 C-2.01 2 -1.02 2 0 2 C0 1.34 0 0.68 0 0 Z " transform="translate(374,196)" style="fill: #F6412D;"/><path d="M0 0 C-1.05078125 1.51953125 -1.05078125 1.51953125 -3 3 C-6.35546875 3.07421875 -6.35546875 3.07421875 -10.1875 2.6875 C-11.45980469 2.56761719 -12.73210937 2.44773438 -14.04296875 2.32421875 C-15.01878906 2.21722656 -15.99460937 2.11023438 -17 2 C-17 1.67 -17 1.34 -17 1 C-16.16855469 0.93941406 -15.33710937 0.87882813 -14.48046875 0.81640625 C-12.85044922 0.69072266 -12.85044922 0.69072266 -11.1875 0.5625 C-10.10855469 0.48128906 -9.02960938 0.40007812 -7.91796875 0.31640625 C-0.89108911 -0.44554455 -0.89108911 -0.44554455 0 0 Z " transform="translate(125,172)" style="fill: #F55D4C;"/><path d="M0 0 C1.32 0.66 2.64 1.32 4 2 C2.71034824 3.37562854 1.37310707 4.70766393 0 6 C-0.66 6 -1.32 6 -2 6 C-2.33 4.68 -2.66 3.36 -3 2 C-2.01 1.34 -1.02 0.68 0 0 Z " transform="translate(405,172)" style="fill: #F63F29;"/><path d="M0 0 C0.556875 0.2475 1.11375 0.495 1.6875 0.75 C1.048125 1.018125 0.40875 1.28625 -0.25 1.5625 C-2.64381686 2.63667752 -2.64381686 2.63667752 -3.3125 5.75 C-4.6325 5.09 -5.9525 4.43 -7.3125 3.75 C-2.88173077 -0.31153846 -2.88173077 -0.31153846 0 0 Z " transform="translate(78.3125,135.25)" style="fill: #F64630;"/><path d="M0 0 C0.99 0 1.98 0 3 0 C2.49202991 4.3177458 1.80317221 8.03302114 0 12 C-0.33 12 -0.66 12 -1 12 C-1 10.02 -1 8.04 -1 6 C-0.34 6 0.32 6 1 6 C0.67 4.02 0.34 2.04 0 0 Z " transform="translate(171,136)" style="fill: #F64835;"/><path d="M0 0 C1.32 0.66 2.64 1.32 4 2 C2.68 3.32 1.36 4.64 0 6 C0.66 6.33 1.32 6.66 2 7 C0.35 7 -1.3 7 -3 7 C-1.125 1.125 -1.125 1.125 0 0 Z " transform="translate(301,47)" style="fill: #F93D27;"/><path d="M0 0 C3.14737182 0.69941596 6.02588876 1.76078698 9 3 C8.67 4.32 8.34 5.64 8 7 C6.66382648 6.02471263 5.3311249 5.04466681 4 4.0625 C3.2575 3.51722656 2.515 2.97195312 1.75 2.41015625 C1.1725 1.94480469 0.595 1.47945312 0 1 C0 0.67 0 0.34 0 0 Z " transform="translate(286,35)" style="fill: #F8E8E3;"/><path d="M0 0 C2.97 1.98 2.97 1.98 6 4 C3.4345406 6.5654594 1.52313332 6.54046087 -2 7 C-1.67 6.01 -1.34 5.02 -1 4 C-0.34 4 0.32 4 1 4 C0.67 2.68 0.34 1.36 0 0 Z " transform="translate(269,23)" style="fill: #F53F25;"/><path d="M0 0 C0.33 0.99 0.66 1.98 1 3 C1.66 3.33 2.32 3.66 3 4 C1.68 4.33 0.36 4.66 -1 5 C-1.103125 5.639375 -1.20625 6.27875 -1.3125 6.9375 C-1.6528125 7.9584375 -1.6528125 7.9584375 -2 9 C-2.99 9.33 -3.98 9.66 -5 10 C-3.66511872 6.40608886 -2.03977277 3.24509304 0 0 Z " transform="translate(164,124)" style="fill: #F34837;"/><path d="M0 0 C0.33 0.99 0.66 1.98 1 3 C-0.28745036 3.38922918 -1.58019597 3.76098036 -2.875 4.125 C-3.95394531 4.43824219 -3.95394531 4.43824219 -5.0546875 4.7578125 C-5.69664062 4.83773437 -6.33859375 4.91765625 -7 5 C-7.66 4.34 -8.32 3.68 -9 3 C-2.25 0 -2.25 0 0 0 Z " transform="translate(307,105)" style="fill: #F53F28;"/><path d="M0 0 C0 3.46877176 -0.61849799 5.82254537 -2 9 C-4.125 9.875 -4.125 9.875 -6 10 C-4.6302836 6.00499382 -2.74277578 3.19990508 0 0 Z " transform="translate(149,334)" style="fill: #202120;"/><path d="M0 0 C2 1 2 1 2.875 2.9375 C4.22909764 5.42001234 5.42178493 5.96871397 8 7 C7.34 7.66 6.68 8.32 6 9 C3.36 7.02 0.72 5.04 -2 3 C-1.34 2.67 -0.68 2.34 0 2 C0 1.34 0 0.68 0 0 Z " transform="translate(167,225)" style="fill: #F84230;"/><path d="M0 0 C0.99 0.66 1.98 1.32 3 2 C3 3.32 3 4.64 3 6 C1.35 6.66 -0.3 7.32 -2 8 C-1.34 5.36 -0.68 2.72 0 0 Z " transform="translate(260,167)" style="fill: #F74431;"/><path d="M0 0 C0.33 0.66 0.66 1.32 1 2 C2.32 2.33 3.64 2.66 5 3 C2.69 4.65 0.38 6.3 -2 8 C-2 6.68 -2 5.36 -2 4 C-1.34 4 -0.68 4 0 4 C-0.33 3.01 -0.66 2.02 -1 1 C-0.67 0.67 -0.34 0.34 0 0 Z " transform="translate(135,155)" style="fill: #FBE8E3;"/><path d="M0 0 C0.33 0.66 0.66 1.32 1 2 C0.67 2.66 0.34 3.32 0 4 C0.66 4 1.32 4 2 4 C2 4.66 2 5.32 2 6 C2.66 6.66 3.32 7.32 4 8 C2.02 8 0.04 8 -2 8 C-1.125 1.125 -1.125 1.125 0 0 Z " transform="translate(311,122)" style="fill: #F9493A;"/><path d="M0 0 C0.66 0 1.32 0 2 0 C2.33 0.99 2.66 1.98 3 3 C5.00016466 4.20882096 5.00016466 4.20882096 7 5 C6.67 5.66 6.34 6.32 6 7 C2.34683329 5.75023244 1.21934164 5.32901247 -1 2 C-0.67 1.34 -0.34 0.68 0 0 Z " transform="translate(135,202)" style="fill: #F6422F;"/><path d="M0 0 C-2.3125 2.0625 -2.3125 2.0625 -5 4 C-5.99 3.67 -6.98 3.34 -8 3 C-7.67 2.01 -7.34 1.02 -7 0 C-3.86650268 -1.04449911 -3.01031744 -0.93423645 0 0 Z " transform="translate(369,204)" style="fill: #F83D27;"/><path d="M0 0 C0.99 0.33 1.98 0.66 3 1 C1.73295613 3.53408774 0.56876843 3.93209972 -1.9375 5.1875 C-2.64777344 5.55230469 -3.35804687 5.91710937 -4.08984375 6.29296875 C-4.72019531 6.52628906 -5.35054687 6.75960937 -6 7 C-6.66 6.67 -7.32 6.34 -8 6 C-6.7391988 4.96680187 -5.46596742 3.94875621 -4.1875 2.9375 C-3.47980469 2.36902344 -2.77210937 1.80054688 -2.04296875 1.21484375 C-1.36878906 0.81394531 -0.69460937 0.41304687 0 0 Z " transform="translate(69,140)" style="fill: #F44936;"/><path d="M0 0 C0.66 0.33 1.32 0.66 2 1 C0.41641358 4.16717283 -0.45263699 5.73268318 -3.6875 7.3125 C-4.450625 7.539375 -5.21375 7.76625 -6 8 C-4.26440562 4.942048 -2.61527381 2.36620011 0 0 Z " transform="translate(212,133)" style="fill: #F7E7E2;"/><path d="M0 0 C0.33 0.66 0.66 1.32 1 2 C1.66 2.33 2.32 2.66 3 3 C0.03 5.475 0.03 5.475 -3 8 C-3.66 7.34 -4.32 6.68 -5 6 C-4.01 5.34 -3.02 4.68 -2 4 C-2 3.01 -2 2.02 -2 1 C-1.34 0.67 -0.68 0.34 0 0 Z " transform="translate(81,132)" style="fill: #F93B25;"/><path d="M0 0 C4.05606165 0.46800711 7.46588679 0.87953208 11 3 C10.67 3.99 10.34 4.98 10 6 C6.7 4.35 3.4 2.7 0 1 C0 0.67 0 0.34 0 0 Z " transform="translate(238,129)" style="fill: #F14C3A;"/><path d="M0 0 C0.33 1.32 0.66 2.64 1 4 C-0.32 4.99 -1.64 5.98 -3 7 C-3.66 5.68 -4.32 4.36 -5 3 C-3.35 2.01 -1.7 1.02 0 0 Z " transform="translate(158,112)" style="fill: #F73920;"/><path d="M0 0 C2.31 0.66 4.62 1.32 7 2 C7 2.66 7 3.32 7 4 C7.66 4 8.32 4 9 4 C8.67 4.99 8.34 5.98 8 7 C6.66382648 6.02471263 5.3311249 5.04466681 4 4.0625 C3.2575 3.51722656 2.515 2.97195312 1.75 2.41015625 C1.1725 1.94480469 0.595 1.47945313 0 1 C0 0.67 0 0.34 0 0 Z " transform="translate(341,76)" style="fill: #F7E3DB;"/><path d="M0 0 C0.99 0.33 1.98 0.66 3 1 C1.37660195 2.70884005 -0.29319053 4.37446717 -2 6 C-2.66 6 -3.32 6 -4 6 C-3.6875 4.125 -3.6875 4.125 -3 2 C-2.01 1.34 -1.02 0.68 0 0 Z " transform="translate(225,25)" style="fill: #F9F1EC;"/><path d="M0 0 C1.125 1.75 1.125 1.75 2 4 C1.17133982 6.8174446 0.41463847 7.75609502 -2.125 9.25 C-2.74375 9.4975 -3.3625 9.745 -4 10 C-2.66666667 6.66666667 -1.33333333 3.33333333 0 0 Z " transform="translate(257,176)" style="fill: #F44735;"/><path d="M0 0 C-1.24546405 3.73639216 -2.63404953 4.18756513 -6 6 C-6 4.35 -6 2.7 -6 1 C-3.92446352 0.4465236 -2.15634036 0 0 0 Z " transform="translate(426,160)" style="fill: #F73F29;"/><path d="M0 0 C2.475 0.99 2.475 0.99 5 2 C3.35 3.32 1.7 4.64 0 6 C0 5.34 0 4.68 0 4 C-0.66 4 -1.32 4 -2 4 C-1.34 2.68 -0.68 1.36 0 0 Z " transform="translate(186,51)" style="fill: #FAF1EB;"/><path d="M0 0 C0.66 1.32 1.32 2.64 2 4 C0.67172689 6.85578718 -0.14643942 8.57321971 -3 10 C-2.01 6.7 -1.02 3.4 0 0 Z " transform="translate(370,408)" style="fill: #282A29;"/><path d="M0 0 C0 0.99 0 1.98 0 3 C-2.3125 4.75 -2.3125 4.75 -5 6 C-5.99 5.67 -6.98 5.34 -8 5 C-2.25 0 -2.25 0 0 0 Z " transform="translate(312,246)" style="fill: #FBE8E2;"/><path d="M0 0 C0.66 0.33 1.32 0.66 2 1 C1.67 2.65 1.34 4.3 1 6 C-1.97 5.505 -1.97 5.505 -5 5 C-3.35 3.35 -1.7 1.7 0 0 Z " transform="translate(393,185)" style="fill: #F7E7E0;"/><path d="M0 0 C0.66 0.33 1.32 0.66 2 1 C-1.17320782 4.53586014 -3.16743695 6.58578031 -8 7 C-5.4837822 4.39391727 -2.94865641 2.10618315 0 0 Z " transform="translate(178,62)" style="fill: #F54834;"/><path d="M0 0 C0 1.65 0 3.3 0 5 C-3 5 -3 5 -6 3 C-1.125 0 -1.125 0 0 0 Z " transform="translate(213,38)" style="fill: #F7412A;"/><path d="M0 0 C0.66 0.33 1.32 0.66 2 1 C1.34 2.32 0.68 3.64 0 5 C-1.65 5 -3.3 5 -5 5 C-3.35 3.35 -1.7 1.7 0 0 Z " transform="translate(221,31)" style="fill: #F74533;"/><path d="M0 0 C0 0.66 0 1.32 0 2 C0.99 2.33 1.98 2.66 3 3 C0.39417629 3.93065133 -0.64198224 4.14917407 -3.25 3.0625 C-3.8275 2.711875 -4.405 2.36125 -5 2 C-3 0 -3 0 0 0 Z " transform="translate(253,10)" style="fill: #F34C38;"/><path d="M0 0 C2.475 0.495 2.475 0.495 5 1 C5 2.32 5 3.64 5 5 C2.525 4.01 2.525 4.01 0 3 C0 2.01 0 1.02 0 0 Z " transform="translate(162,433)" style="fill: #161616;"/><path d="M0 0 C2.88437779 1.29299694 4.87219421 2.65941363 7 5 C5.35 5 3.7 5 2 5 C1.34 3.35 0.68 1.7 0 0 Z " transform="translate(201,255)" style="fill: #FBE9E4;"/><path d="M0 0 C-1 3 -1 3 -4 5 C-4.99 4.67 -5.98 4.34 -7 4 C-4.83989616 0.75984424 -3.8842653 0 0 0 Z " transform="translate(391,186)" style="fill: #F6412A;"/><path d="M0 0 C1.67542976 0.28604898 3.34385343 0.61781233 5 1 C3.68 2.32 2.36 3.64 1 5 C0.34 3.68 -0.32 2.36 -1 1 C-0.67 0.67 -0.34 0.34 0 0 Z " transform="translate(409,169)" style="fill: #F73F27;"/><path d="M0 0 C-1 3 -1 3 -3.0625 4.1875 C-3.701875 4.455625 -4.34125 4.72375 -5 5 C-5 3.68 -5 2.36 -5 1 C-3 0 -3 0 0 0 Z " transform="translate(424,165)" style="fill: #F7F2ED;"/><path d="M0 0 C2.475 0.495 2.475 0.495 5 1 C4.67 3.31 4.34 5.62 4 8 C2.22293791 5.33440687 1.12451727 2.9719385 0 0 Z " transform="translate(279,142)" style="fill: #F93F27;"/><path d="M0 0 C0.33 0.66 0.66 1.32 1 2 C1.66 2.33 2.32 2.66 3 3 C1.02 3.99 -0.96 4.98 -3 6 C-3.33 5.01 -3.66 4.02 -4 3 C-2.68 2.01 -1.36 1.02 0 0 Z " transform="translate(221,136)" style="fill: #F8F3ED;"/><path d="M0 0 C-0.33 1.32 -0.66 2.64 -1 4 C-4.75 5.125 -4.75 5.125 -7 4 C-2.25 0 -2.25 0 0 0 Z " transform="translate(99,120)" style="fill: #F64633;"/><path d="M0 0 C0.66 0.33 1.32 0.66 2 1 C2 1.33 2 1.66 2 2 C2.66 2.33 3.32 2.66 4 3 C3.01 4.485 3.01 4.485 2 6 C1.01 5.67 0.02 5.34 -1 5 C-1.33 4.01 -1.66 3.02 -2 2 C-1.34 1.34 -0.68 0.68 0 0 Z " transform="translate(164,72)" style="fill: #FB3F2C;"/><path d="M0 0 C2.5 1.375 2.5 1.375 5 3 C5 3.66 5 4.32 5 5 C3.68 5 2.36 5 1 5 C1 4.34 1 3.68 1 3 C0.34 3 -0.32 3 -1 3 C-0.67 2.01 -0.34 1.02 0 0 Z " transform="translate(305,50)" style="fill: #F73920;"/></svg>