<svg id="svg" version="1.1" xmlns="http://www.w3.org/2000/svg" style="display: block;" viewBox="0 0 512 512"><path d="M0 0 C168.96 0 337.92 0 512 0 C512 168.96 512 337.92 512 512 C343.04 512 174.08 512 0 512 C0 343.04 0 174.08 0 0 Z " transform="translate(0,0)" style="fill: #000000;"/><path d="M0 0 C119.46 0 238.92 0 362 0 C362 55.11 362 110.22 362 167 C242.54 167 123.08 167 0 167 C0 111.89 0 56.78 0 0 Z " transform="translate(76,0)" style="fill: #E21D1A;"/><path d="M0 0 C58.08 0 116.16 0 176 0 C176 85.14 176 170.28 176 258 C171.88391564 256.97097891 168.96853715 255.27827252 165.4375 253.0625 C137.45867445 235.99955122 107.15410339 223.02832113 74.0625 221.5625 C52.60251025 220.57273108 30.86613368 213.17785136 16 197 C3.54316793 181.5928656 -0.32363161 165.5838072 -0.22705078 146.10717773 C-0.22643728 144.48408804 -0.2267065 142.86099782 -0.2277813 141.23790836 C-0.22823068 136.91233608 -0.21668402 132.58687566 -0.20256042 128.26132965 C-0.19112538 124.19443937 -0.19063173 120.12757557 -0.18920898 116.06066895 C-0.17873661 104.18626463 -0.15081412 92.31188088 -0.125 80.4375 C-0.08375 53.893125 -0.0425 27.34875 0 0 Z " transform="translate(74,178)" style="fill: #0E2240;"/><path d="M0 0 C58.08 0 116.16 0 176 0 C176.061875 25.389375 176.12375 50.77875 176.1875 76.9375 C176.22846802 88.92179321 176.22846802 88.92179321 176.27026367 101.14819336 C176.28381348 110.97375488 176.28381348 110.97375488 176.28633118 115.58692932 C176.28910382 118.77958042 176.30025601 121.97207885 176.31672668 125.16468811 C176.33755943 129.25810811 176.34342712 133.35131143 176.33921683 137.44477952 C176.34009504 138.93391583 176.34589102 140.42306104 176.35764539 141.91215122 C176.52413945 164.0632509 172.23718407 182.8460515 156.6875 199.47265625 C140.7572116 214.74791634 120.22887161 220.6171033 98.6875 221.8125 C65.19439185 224.06773592 32.2238659 237.32800302 4.65625 256.2890625 C2 258 2 258 0 258 C0 172.86 0 87.72 0 0 Z " transform="translate(262,178)" style="fill: #0E2240;"/><path d="M0 0 C0.66 0 1.32 0 2 0 C3.18278132 1.54064849 4.29444569 3.13600749 5.375 4.75 C21.81701031 27.78655761 47.15824248 42.47954401 74.87719727 47.26049805 C76.32990349 47.49606776 77.78482466 47.71852145 79.24194336 47.92504883 C83.69069864 48.59044943 87.03842508 49.92095989 91 52 C91.02481819 56.73225528 91.04291583 61.46447221 91.05493164 66.19677734 C91.05994375 67.80485698 91.06675519 69.4129321 91.07543945 71.02099609 C91.08764226 73.33952961 91.09325964 75.65800259 91.09765625 77.9765625 C91.10281754 78.68930328 91.10797882 79.40204407 91.11329651 80.13638306 C91.11374755 84.19856429 90.78775607 88.01488106 90 92 C90.79277344 92.25265625 91.58554688 92.5053125 92.40234375 92.765625 C95.1189337 93.69770146 97.77316147 94.67900346 100.44140625 95.734375 C171.63006071 123.85725147 257.16437735 123.94305079 327.73046875 93.7578125 C328.50801514 93.4189502 329.28556152 93.08008789 330.08666992 92.73095703 C332 92 332 92 334 92 C333.83701416 91.1754834 333.67402832 90.3509668 333.50610352 89.50146484 C332.94741783 85.63621154 332.87414664 81.87040466 332.90234375 77.9765625 C332.90446617 76.85729874 332.90446617 76.85729874 332.90663147 75.71542358 C332.91219126 73.35190682 332.92473611 70.98848773 332.9375 68.625 C332.9425202 67.01432429 332.9470822 65.40364709 332.95117188 63.79296875 C332.96214749 59.86194201 332.97938404 55.93098752 333 52 C336.85408568 49.92886759 340.21626497 48.5528571 344.52734375 47.82421875 C345.55947998 47.63947998 346.59161621 47.45474121 347.6550293 47.2644043 C348.73824463 47.07402588 349.82145996 46.88364746 350.9375 46.6875 C372.48741573 42.61032113 389.95606705 33.79227861 406 19 C406.84691406 18.22398437 407.69382812 17.44796875 408.56640625 16.6484375 C413.29051008 12.12416886 417.04870493 7.37116043 420.58984375 1.87109375 C421.05519531 1.25363281 421.52054687 0.63617188 422 0 C422.66 0 423.32 0 424 0 C420.48297682 17.36530194 414.35851052 36.190187 403 50 C413.55343612 48.72890468 423.6992843 46.56894362 434 44 C428.07640526 61.32251219 410.14533072 73.70889344 394.7421875 81.6875 C377.49375 90 377.49375 90 369 90 C369.04713135 90.55872803 369.0942627 91.11745605 369.14282227 91.69311523 C370.29644169 107.41381657 370.29644169 107.41381657 367.48828125 113.015625 C365.15162019 115.41707334 362.80950745 117.17286454 360 119 C358.95972656 119.73992187 357.91945313 120.47984375 356.84765625 121.2421875 C353.33494838 123.67784959 349.70139765 125.86487595 346 128 C345.41959961 128.3388623 344.83919922 128.67772461 344.24121094 129.02685547 C310.49141832 148.33264136 266.72940953 155.05441986 228.34375 155.203125 C227.16196167 155.20882507 225.98017334 155.21452515 224.76257324 155.22039795 C222.26831947 155.22979026 219.7740536 155.23635878 217.27978516 155.24023438 C213.5651922 155.24983157 209.85117982 155.28086653 206.13671875 155.3125 C165.4704359 155.49272229 123.02652863 149.63654421 86 132 C85.31196289 131.67386719 84.62392578 131.34773437 83.91503906 131.01171875 C75.0561444 126.73765328 67.27627993 121.68793386 60 115 C59.08089844 114.29875 58.16179687 113.5975 57.21484375 112.875 C53.93661952 108.61966838 54.44818967 104.89710181 54.6875 99.6875 C54.71005859 98.75615234 54.73261719 97.82480469 54.75585938 96.86523438 C54.81457922 94.5751604 54.89663142 92.28842125 55 90 C54.36642578 89.89824463 53.73285156 89.79648926 53.08007812 89.69165039 C30.65430739 85.94194949 9.88490818 72.85202481 -4 55 C-6.09143056 52.05400642 -8.08723551 49.06477038 -10 46 C-9.67 45.34 -9.34 44.68 -9 44 C-8.44650879 44.14622803 -7.89301758 44.29245605 -7.32275391 44.44311523 C-4.75881287 45.11571621 -2.19199038 45.77663652 0.375 46.4375 C1.24511719 46.66759766 2.11523438 46.89769531 3.01171875 47.13476562 C8.99779202 48.66453991 14.83774561 49.56291951 21 50 C20.54488037 49.42813965 20.08976074 48.8562793 19.62084961 48.26708984 C10.71654618 36.84264993 0 14.75797177 0 0 Z " transform="translate(44,357)" style="fill: #102441;"/><path d="M0 0 C4.71389012 1.27834308 6.57526226 0.17233404 10.8828125 -1.8046875 C26.93330049 -8.64514617 45.67760343 -7.4435775 61.85546875 -1.91796875 C65.05156998 -0.88199111 67.34716581 -0.6446453 70.6875 -1 C73.1625 -2.485 73.1625 -2.485 75.6875 -4 C75.6875 34.61 75.6875 73.22 75.6875 113 C27.8375 113 -20.0125 113 -69.3125 113 C-69.3125 74.39 -69.3125 35.78 -69.3125 -4 C-66.8375 -2.515 -66.8375 -2.515 -64.3125 -1 C-58.30136568 -0.46926645 -51.86045381 -2.75980058 -46.109375 -4.28125 C-30.68482519 -8.24510079 -14.41033394 -6.80328515 0 0 Z " transform="translate(158.3125,245)" style="fill: #DBD497;"/><path d="M0 0 C7.92 0 15.84 0 24 0 C24 6.93 24 13.86 24 21 C26.31 21.33 28.62 21.66 31 22 C34.05944404 22.86962106 36.99819615 23.93782325 40 25 C44.29 20.71 48.58 16.42 53 12 C57.48890152 14.24445076 60.28878813 16.885872 63.8125 20.375 C64.42287109 20.9525 65.03324219 21.53 65.66210938 22.125 C66.5196582 22.97191406 66.5196582 22.97191406 67.39453125 23.8359375 C67.91893799 24.34688965 68.44334473 24.8578418 68.98364258 25.38427734 C70 27 70 27 69.83300781 29.00927734 C68.91842969 31.19493679 67.97326829 32.37325598 66.27734375 34.015625 C65.73916016 34.54414063 65.20097656 35.07265625 64.64648438 35.6171875 C64.08251953 36.15601563 63.51855469 36.69484375 62.9375 37.25 C62.36966797 37.80429687 61.80183594 38.35859375 61.21679688 38.9296875 C59.81787531 40.29334214 58.40980886 41.64760417 57 43 C57.20496094 43.58007812 57.40992188 44.16015625 57.62109375 44.7578125 C57.89050781 45.53898437 58.15992188 46.32015625 58.4375 47.125 C58.70433594 47.89070313 58.97117187 48.65640625 59.24609375 49.4453125 C60 52 60 52 61 58 C68.26 58 75.52 58 83 58 C83 65.92 83 73.84 83 82 C75.74 82 68.48 82 61 82 C60.34 84.64 59.68 87.28 59 90 C58.01 92.31 57.02 94.62 56 97 C60.62 101.62 65.24 106.24 70 111 C67.75554924 115.48890152 65.114128 118.28878813 61.625 121.8125 C61.0475 122.42287109 60.47 123.03324219 59.875 123.66210938 C59.02808594 124.5196582 59.02808594 124.5196582 58.1640625 125.39453125 C57.65311035 125.91893799 57.1421582 126.44334473 56.61572266 126.98364258 C55 128 55 128 52.99072266 127.83300781 C50.80506321 126.91842969 49.62674402 125.97326829 47.984375 124.27734375 C47.45585937 123.73916016 46.92734375 123.20097656 46.3828125 122.64648438 C45.84398437 122.08251953 45.30515625 121.51855469 44.75 120.9375 C43.91855469 120.08575195 43.91855469 120.08575195 43.0703125 119.21679688 C41.70665786 117.81787531 40.35239583 116.40980886 39 115 C38.41992188 115.20496094 37.83984375 115.40992188 37.2421875 115.62109375 C36.46101563 115.89050781 35.67984375 116.15992188 34.875 116.4375 C34.10929687 116.70433594 33.34359375 116.97117187 32.5546875 117.24609375 C30 118 30 118 24 119 C24 126.26 24 133.52 24 141 C16.08 141 8.16 141 0 141 C0 133.41 0 125.82 0 118 C-1.65 117.67 -3.3 117.34 -5 117 C-7.64 115.68 -10.28 114.36 -13 113 C-18.28 118.28 -23.56 123.56 -29 129 C-33.36670004 125.25711426 -37.43141441 121.68596348 -41.4375 117.625 C-42.30246094 116.75101562 -43.16742188 115.87703125 -44.05859375 114.9765625 C-44.69925781 114.32429688 -45.33992188 113.67203125 -46 113 C-44.65181652 109.9056376 -43.24836115 108.12270589 -40.63671875 106.00390625 C-34.74275974 101.02483525 -34.74275974 101.02483525 -30 95 C-29.6446571 89.66985649 -30.87331047 87.03689625 -33 82 C-41.58 82 -50.16 82 -59 82 C-59 74.41 -59 66.82 -59 59 C-46.625 58.505 -46.625 58.505 -34 58 C-32.68 54.04 -31.36 50.08 -30 46 C-35.28 40.72 -40.56 35.44 -46 30 C-44.31353217 26.62706435 -43.30850283 25.06653006 -40.7421875 22.546875 C-40.11699219 21.928125 -39.49179687 21.309375 -38.84765625 20.671875 C-38.19667969 20.03765625 -37.54570312 19.4034375 -36.875 18.75 C-36.21628906 18.1003125 -35.55757813 17.450625 -34.87890625 16.78125 C-33.25703357 15.18288273 -31.6306719 13.58938103 -30 12 C-25.8586167 15.4808174 -21.86209149 19.01695326 -18.0625 22.875 C-17.29035156 23.65617187 -16.51820313 24.43734375 -15.72265625 25.2421875 C-15.15417969 25.82226562 -14.58570313 26.40234375 -14 27 C-13.24074219 26.6390625 -12.48148437 26.278125 -11.69921875 25.90625 C-10.70535156 25.4421875 -9.71148437 24.978125 -8.6875 24.5 C-7.70136719 24.0359375 -6.71523438 23.571875 -5.69921875 23.09375 C-3 22 -3 22 0 22 C0 14.74 0 7.48 0 0 Z " transform="translate(337,226)" style="fill: #F0BB45;"/><path d="M0 0 C10.56967902 7.51863765 18.49709485 17.68830191 21.2734375 30.6171875 C22.78904014 45.78883871 19.42814498 59.55904707 9.68359375 71.578125 C-0.13688091 82.16113064 -13.63757246 86.88573556 -27.79003906 87.59570312 C-42.88393512 88.01517891 -56.03621541 83.27296946 -67.3515625 73.3046875 C-68.1353125 72.4178125 -68.9190625 71.5309375 -69.7265625 70.6171875 C-70.29246094 69.98167969 -70.85835937 69.34617187 -71.44140625 68.69140625 C-76.14268494 63.0955925 -78.60580359 57.57236459 -80.7265625 50.6171875 C-81.2215625 49.1321875 -81.2215625 49.1321875 -81.7265625 47.6171875 C-82.95855193 32.58691646 -79.66563274 20.35053208 -69.7265625 8.6171875 C-51.85592407 -11.00127784 -22.06382595 -14.35219746 0 0 Z " transform="translate(286.7265625,30.3828125)" style="fill: #F6F9FB;"/><path d="M0 0 C0.66 0 1.32 0 2 0 C-1.51702318 17.36530194 -7.64148948 36.190187 -19 50 C-8.44656388 48.72890468 1.6992843 46.56894362 12 44 C6.07640526 61.32251219 -11.85466928 73.70889344 -27.2578125 81.6875 C-44.50625 90 -44.50625 90 -53 90 C-53.495 79.605 -53.495 79.605 -54 69 C-55.03125 70.134375 -56.0625 71.26875 -57.125 72.4375 C-65.80221037 81.09937961 -76.98569619 86.85595701 -88 92 C-88.92947107 87.29796986 -89.13223651 82.75187765 -89.09765625 77.9765625 C-89.0962413 77.23038666 -89.09482635 76.48421082 -89.09336853 75.71542358 C-89.08780874 73.35190682 -89.07526389 70.98848773 -89.0625 68.625 C-89.0574798 67.01432429 -89.0529178 65.40364709 -89.04882812 63.79296875 C-89.03785251 59.86194201 -89.02061596 55.93098752 -89 52 C-85.14591432 49.92886759 -81.78373503 48.5528571 -77.47265625 47.82421875 C-76.44052002 47.63947998 -75.40838379 47.45474121 -74.3449707 47.2644043 C-73.26175537 47.07402588 -72.17854004 46.88364746 -71.0625 46.6875 C-49.51258427 42.61032113 -32.04393295 33.79227861 -16 19 C-15.15308594 18.22398437 -14.30617188 17.44796875 -13.43359375 16.6484375 C-8.70948992 12.12416886 -4.95129507 7.37116043 -1.41015625 1.87109375 C-0.94480469 1.25363281 -0.47945313 0.63617188 0 0 Z " transform="translate(466,357)" style="fill: #909286;"/><path d="M0 0 C0.66 0 1.32 0 2 0 C3.18278132 1.54064849 4.29444569 3.13600749 5.375 4.75 C21.81701031 27.78655761 47.15824248 42.47954401 74.87719727 47.26049805 C76.32990349 47.49606776 77.78482466 47.71852145 79.24194336 47.92504883 C83.69069864 48.59044943 87.03842508 49.92095989 91 52 C91.02481819 56.73225528 91.04291583 61.46447221 91.05493164 66.19677734 C91.05994375 67.80485698 91.06675519 69.4129321 91.07543945 71.02099609 C91.08764226 73.33952961 91.09325964 75.65800259 91.09765625 77.9765625 C91.10281754 78.68930328 91.10797882 79.40204407 91.11329651 80.13638306 C91.11374755 84.19856429 90.78775607 88.01488106 90 92 C82.41318276 88.51790455 75.29798447 84.79320319 68.5 79.9375 C67.65671143 79.33929443 67.65671143 79.33929443 66.79638672 78.72900391 C62.73051562 75.75010877 59.64548703 72.64548703 56 69 C55.67 75.93 55.34 82.86 55 90 C29.28916929 84.85783386 7.29691471 71.94404832 -7.5 49.9375 C-8.34060433 48.62964486 -9.17685016 47.31891055 -10 46 C-9.67 45.34 -9.34 44.68 -9 44 C-8.44650879 44.14622803 -7.89301758 44.29245605 -7.32275391 44.44311523 C-4.75881287 45.11571621 -2.19199038 45.77663652 0.375 46.4375 C1.24511719 46.66759766 2.11523438 46.89769531 3.01171875 47.13476562 C8.99779202 48.66453991 14.83774561 49.56291951 21 50 C20.54488037 49.42813965 20.08976074 48.8562793 19.62084961 48.26708984 C10.71654618 36.84264993 0 14.75797177 0 0 Z " transform="translate(44,357)" style="fill: #909286;"/><path d="M0 0 C0.33 0 0.66 0 1 0 C1.01030746 1.18794662 1.02061493 2.37589325 1.03123474 3.59983826 C1.12878933 14.76913411 1.2315059 25.93837202 1.33933926 37.10757351 C1.39461613 42.8504229 1.4480436 48.59327733 1.49731445 54.33618164 C1.5448879 59.8734452 1.59722789 65.41064467 1.65294075 70.94783211 C1.67339622 73.06542436 1.69210389 75.18303422 1.70907402 77.30065727 C1.73304763 80.25576039 1.76311143 83.21074114 1.79467773 86.16577148 C1.8004332 87.05049637 1.80618866 87.93522125 1.81211853 88.84675598 C1.47803152 92.73699879 1.47803152 92.73699879 3 96 C9.22399177 96.38376631 14.31552969 95.35767727 20.25 93.5625 C21.81765001 93.10526875 23.3853564 92.64823072 24.953125 92.19140625 C25.97647949 91.88505249 25.97647949 91.88505249 27.02050781 91.57250977 C39.06137604 88.09004356 51.42612302 89.46429145 63 94 C64.76186065 95.02147761 66.51304489 96.06172374 68.25 97.125 C70.55496359 98.49811167 70.55496359 98.49811167 73 99 C75.90145115 97.94738051 78.07144973 96.49365483 80.5859375 94.7109375 C88.3909736 89.17921289 97.72870026 88.9775119 107 90 C112.43338364 90.94091243 117.71180845 92.45830152 123 94 C133.40526689 97.28678443 133.40526689 97.28678443 144 96 C144.33 95.34 144.66 94.68 145 94 C145 101.59 145 109.18 145 117 C97.15 117 49.3 117 0 117 C0 78.39 0 39.78 0 0 Z " transform="translate(89,241)" style="fill: #919387;"/><path d="M0 0 C7.77791188 5.59144178 13.31915269 12.05972725 15.60546875 21.5 C17.30810753 32.2889982 14.99099257 41.03544977 8.73828125 49.92578125 C4.42662879 55.07069688 -2.25531638 60.20359176 -8.98974609 61.33398438 C-19.11237147 62.13513826 -27.82774577 61.62234395 -36 55 C-42.84627347 48.74569754 -47.4865409 41.149918 -48.15625 31.82421875 C-48.53697461 21.62397189 -45.90649556 13.55805174 -39 6 C-28.66633653 -4.94152603 -13.16427442 -7.78938726 0 0 Z " transform="translate(367,267)" style="fill: #132540;"/><path d="M0 0 C0.495 2.97 0.495 2.97 1 6 C-0.01578125 6.21914063 -1.0315625 6.43828125 -2.078125 6.6640625 C-16.80838759 9.98996102 -30.01241449 15.11190729 -39.0703125 27.9296875 C-40.87441196 30.89626108 -42.48148725 33.87861268 -44 37 C-44.3609375 37.72703125 -44.721875 38.4540625 -45.09375 39.203125 C-49.14112932 49.02176742 -48.04047034 61.51177244 -44.3515625 71.23828125 C-42.45408911 75.11548843 -40.11105901 78.52112433 -37.48828125 81.94140625 C-36 84 -36 84 -35 87 C-33.15868207 88.06169706 -33.15868207 88.06169706 -31 89 C-29.61466025 89.94332473 -28.24019005 90.90274288 -26.875 91.875 C-13.70660388 100.68257326 0.60112824 101.99205117 16 100 C19.43053436 99.21469695 22.71348398 98.25614434 26 97 C26.33 98.98 26.66 100.96 27 103 C20.74827614 105.86964374 15.90352555 107.51137226 9 107 C9 111.62 9 116.24 9 121 C11.31 121 13.62 121 16 121 C16 123.31 16 125.62 16 128 C26.56 128 37.12 128 48 128 C48 132.62 48 137.24 48 142 C17.97 142 -12.06 142 -43 142 C-43 137.38 -43 132.76 -43 128 C-32.44 128 -21.88 128 -11 128 C-11 125.36 -11 122.72 -11 120 C-8.36 120 -5.72 120 -3 120 C-3 115.71 -3 111.42 -3 107 C-3.886875 107.0825 -4.77375 107.165 -5.6875 107.25 C-18.78780828 107.17060419 -30.82382573 99.53658915 -40.16015625 90.92578125 C-50.67266531 79.92224204 -55.57729611 66.05213149 -55.2734375 51.015625 C-54.61452797 37.35466893 -47.43924401 24.32622827 -37.57421875 15.09765625 C-26.82589357 6.33915758 -14.08523076 0 0 0 Z " transform="translate(253,16)" style="fill: #F2BA46;"/><path d="M0 0 C5.95312032 2.47191347 10.04333328 6.33305546 13 12 C14.73177484 17.77258279 14.9345775 23.62776762 12.4375 29.1875 C9.44033244 34.53120445 4.68097446 38.68980706 -1 41 C-6.88888068 41.77556468 -12.41245176 41.7341672 -17.4375 38.33984375 C-22.03612601 34.39652194 -26.50969713 29.67157032 -27.3359375 23.484375 C-27.42627308 17.16088453 -27.01699094 12.08227031 -23 7 C-15.70231849 0.39458867 -9.871006 -1.18859591 0 0 Z " transform="translate(357,275)" style="fill: #EDB945;"/><path d="M0 0 C0.33 0 0.66 0 1 0 C1 35.97 1 71.94 1 109 C48.52 109 96.04 109 145 109 C145 111.64 145 114.28 145 117 C97.15 117 49.3 117 0 117 C0 78.39 0 39.78 0 0 Z " transform="translate(89,241)" style="fill: #756861;"/><path d="M0 0 C0.75023437 0.35296143 1.50046875 0.70592285 2.2734375 1.06958008 C9.04695523 4.09964157 14.59811444 5.71778595 22 5.6875 C23.62510317 5.70413491 25.25014947 5.72858558 26.875 5.76171875 C27.57367188 5.76131592 28.27234375 5.76091309 28.9921875 5.76049805 C31.38013298 6.04534417 32.95691047 6.74410568 35 8 C37.37846382 12.09125694 37.23948524 16.2110741 37.125 20.8125 C37.11597656 21.50537109 37.10695313 22.19824219 37.09765625 22.91210938 C37.07426157 24.60822395 37.03839641 26.30415871 37 28 C36.67 28 36.34 28 36 28 C35.67 23.71 35.34 19.42 35 15 C33.96875 16.134375 32.9375 17.26875 31.875 18.4375 C23.19778963 27.09937961 12.01430381 32.85595701 1 38 C0.10336328 33.41443228 -0.11633191 29.0829778 -0.09765625 24.4140625 C-0.0962413 23.71227875 -0.09482635 23.010495 -0.09336853 22.28744507 C-0.0878129 20.06658496 -0.07526892 17.84582916 -0.0625 15.625 C-0.05747926 14.11067855 -0.05291736 12.5963555 -0.04882812 11.08203125 C-0.03785807 7.38798748 -0.02062449 3.69400394 0 0 Z " transform="translate(377,411)" style="fill: #746660;"/><path d="M0 0 C0.02483101 4.44742458 0.04292183 8.89481178 0.05493164 13.34228516 C0.05994162 14.85336002 0.06675144 16.36443009 0.07543945 17.87548828 C0.08765176 20.05502512 0.09326178 22.23449753 0.09765625 24.4140625 C0.10289307 25.7232666 0.10812988 27.0324707 0.11352539 28.38134766 C0.00972117 31.69013513 -0.36567632 34.75595018 -1 38 C-8.58681724 34.51790455 -15.70201553 30.79320319 -22.5 25.9375 C-23.06219238 25.53869629 -23.62438477 25.13989258 -24.20361328 24.72900391 C-28.18276597 21.81364375 -31.57771401 18.55113712 -35 15 C-35.33 18.3 -35.66 21.6 -36 25 C-36.33 25 -36.66 25 -37 25 C-37.05441656 23.10448978 -37.09298035 21.2085208 -37.125 19.3125 C-37.14820312 18.25675781 -37.17140625 17.20101563 -37.1953125 16.11328125 C-36.99332117 12.89353952 -36.56714161 10.81395554 -35 8 C-31.52883656 5.24643285 -27.23541863 5.71479686 -23 5.625 C-15.20926994 5.33050505 -6.62204405 0 0 0 Z " transform="translate(135,411)" style="fill: #746660;"/><path d="M0 0 C4.08998175 1.80720124 6.66247347 4.19069751 9 8 C9.63030076 12.33331775 9.30227045 14.42784522 7.25 18.3125 C3.87464258 22.34417692 2.37421462 22.86701149 -2.875 23.375 C-7.18785966 23.26235068 -9.70279071 21.82617939 -13 19 C-15.59927406 15.57368419 -15.56641131 12.17728341 -15 8 C-10.89996185 1.64871391 -7.67185784 -0.52012596 0 0 Z " transform="translate(354,284)" style="fill: #142640;"/><path d="M0 0 C2.00615134 1.32405988 4.00669158 2.65668346 6 4 C8.14653547 3.68526347 8.14653547 3.68526347 10 3 C9.68954268 4.9169986 9.37655329 6.83358723 9.0625 8.75 C8.80146484 10.35101563 8.80146484 10.35101563 8.53515625 11.984375 C8.11295829 14.36347593 7.62797116 16.66915211 7 19 C4 18 4 18 3 16 C2.32453125 16.04640625 1.6490625 16.0928125 0.953125 16.140625 C-6.24426451 16.43184885 -6.24426451 16.43184885 -9.625 14.5 C-11.57321117 10.95779788 -11.93000286 7.9464469 -11 4 C-7.71580053 0.13623592 -4.97731571 -0.81262297 0 0 Z " transform="translate(167,473)" style="fill: #162843;"/><path d="M0 0 C4.29 0 8.58 0 13 0 C15 7 15 7 17 14 C15.0429132 14.67031719 13.08428887 15.33614683 11.125 16 C10.03445312 16.37125 8.94390625 16.7425 7.8203125 17.125 C5 18 5 18 3 18 C2.49309416 15.93918639 1.99475381 13.87626474 1.5 11.8125 C1.2215625 10.66394531 0.943125 9.51539062 0.65625 8.33203125 C0 5 0 5 0 0 Z " transform="translate(218,60)" style="fill: #7CA7DD;"/><path d="M0 0 C4.14182881 0.862881 5.56226471 2.18349135 8 5.625 C8.75517074 8.70049372 8.51878636 10.35664594 8 13.625 C5.46528234 16.60702078 3.81287661 17.45565071 0 18.25 C-3 17.625 -3 17.625 -5.875 15 C-8.19483097 11.31556258 -8.90140975 9.86162583 -8 5.625 C-5.54405875 2.30225596 -4.0743356 0.84881992 0 0 Z " transform="translate(262,482.375)" style="fill: #C7C28F;"/><path d="M0 0 C1.22264708 1.84722824 2.35379694 3.75547885 3.4375 5.6875 C4.03433594 6.74324219 4.63117188 7.79898438 5.24609375 8.88671875 C6.11427734 10.42779297 6.11427734 10.42779297 7 12 C7.58523437 12.8971875 8.17046875 13.794375 8.7734375 14.71875 C10 17 10 17 9.1875 19.8125 C8.795625 20.534375 8.40375 21.25625 8 22 C3.99753372 21.44538573 1.96766413 19.45372748 -0.9375 16.75 C-1.81019531 15.93917969 -2.68289062 15.12835938 -3.58203125 14.29296875 C-4.37996094 13.53628906 -5.17789063 12.77960938 -6 12 C-6.87205078 11.18982422 -6.87205078 11.18982422 -7.76171875 10.36328125 C-8.88768376 9.28893641 -9.95313136 8.1515555 -11 7 C-11 6.34 -11 5.68 -11 5 C-9.54462432 4.16151196 -8.08559627 3.32936066 -6.625 2.5 C-5.40683594 1.80390625 -5.40683594 1.80390625 -4.1640625 1.09375 C-2 0 -2 0 0 0 Z " transform="translate(244,95)" style="fill: #7BA6DD;"/><path d="M0 0 C2.97943949 1.5996171 3.73937241 3.95186161 5.15625 6.9609375 C5.67703125 8.04246094 6.1978125 9.12398437 6.734375 10.23828125 C7.90625 13.0234375 7.90625 13.0234375 7.90625 15.0234375 C6.51389957 15.53305596 5.11715882 16.03068659 3.71875 16.5234375 C2.94144531 16.801875 2.16414063 17.0803125 1.36328125 17.3671875 C-1.09375 18.0234375 -1.09375 18.0234375 -6.09375 18.0234375 C-7.74375 13.7334375 -9.39375 9.4434375 -11.09375 5.0234375 C-2.81444733 0.03150501 -2.81444733 0.03150501 0 0 Z " transform="translate(282.09375,42.9765625)" style="fill: #7AA6DC;"/><path d="M0 0 C2.64 0 5.28 0 8 0 C8.50333542 2.60356241 9.00279378 5.20776651 9.5 7.8125 C9.64308594 8.55048828 9.78617188 9.28847656 9.93359375 10.04882812 C10.50926281 13.07794391 11 15.909196 11 19 C6.05 20.485 6.05 20.485 1 22 C-1.16509478 17.66981044 -1.26712219 14.56013756 -1.1875 9.875 C-1.18685547 9.14667969 -1.18621094 8.41835937 -1.18554688 7.66796875 C-1.14074248 2.28148496 -1.14074248 2.28148496 0 0 Z " transform="translate(206,60)" style="fill: #7DA7D9;"/><path d="M0 0 C3.96 0 7.92 0 12 0 C11.54653267 7.7996381 10.59308786 14.62845463 8 22 C4.84659475 22 3.56192259 21.76535842 1 20 C0.390625 17.96875 0.390625 17.96875 0.25 15.5 C0.19457031 14.61570312 0.13914062 13.73140625 0.08203125 12.8203125 C-0.04242756 8.54130022 -0.06115438 4.28080684 0 0 Z " transform="translate(283,83)" style="fill: #7AA6DC;"/><path d="M0 0 C3.8123078 2.78692846 6.262735 5.49396256 8.75 9.5 C9.34296875 10.4384375 9.9359375 11.376875 10.546875 12.34375 C11.80278329 14.63949634 12.54234628 16.446774 13 19 C9.12315913 20.19287411 6.08378077 21 2 21 C0.66161267 18.54429825 -0.67086232 16.08570084 -2 13.625 C-2.3815625 12.92632812 -2.763125 12.22765625 -3.15625 11.5078125 C-6 6.2265625 -6 6.2265625 -6 4 C-4.03852126 2.61061923 -2.03833424 1.2739589 0 0 Z " transform="translate(292,35)" style="fill: #7BA2D8;"/><path d="M0 0 C1.65 0 3.3 0 5 0 C5 0.99 5 1.98 5 3 C6.59414291 4.73700651 6.59414291 4.73700651 8.6875 6.375 C11.96864369 9.11997101 15.02336286 11.93034295 18 15 C17 18 17 18 14.93359375 19.16796875 C14.10988281 19.50441406 13.28617187 19.84085938 12.4375 20.1875 C11.61121094 20.53167969 10.78492188 20.87585938 9.93359375 21.23046875 C9.29550781 21.48441406 8.65742188 21.73835938 8 22 C6.70254209 20.10812533 5.4122624 18.21132656 4.125 16.3125 C3.40570313 15.25675781 2.68640625 14.20101562 1.9453125 13.11328125 C0.25357777 10.40582626 -1.08106082 8.04920726 -2 5 C-1.125 2.1875 -1.125 2.1875 0 0 Z " transform="translate(261,22)" style="fill: #7CA5DB;"/><path d="M0 0 C1.203125 2.1796875 1.203125 2.1796875 2.25 4.875 C2.78367188 6.20144531 2.78367188 6.20144531 3.328125 7.5546875 C4 10 4 10 3 13 C0.71484375 14.38671875 0.71484375 14.38671875 -2.0625 15.6875 C-3.44115234 16.34298828 -3.44115234 16.34298828 -4.84765625 17.01171875 C-5.91306641 17.50091797 -5.91306641 17.50091797 -7 18 C-8.20005531 15.9021477 -9.38502983 13.7979751 -10.5625 11.6875 C-11.07586914 10.79514648 -11.07586914 10.79514648 -11.59960938 9.88476562 C-12.47766262 8.29717441 -13.24586268 6.65006069 -14 5 C-13.67 4.01 -13.34 3.02 -13 2 C-10.8203125 1.015625 -10.8203125 1.015625 -8.125 0.25 C-7.24070313 -0.01296875 -6.35640625 -0.2759375 -5.4453125 -0.546875 C-3 -1 -3 -1 0 0 Z " transform="translate(237,79)" style="fill: #7BA7DD;"/><path d="M0 0 C0.50757862 1.41396902 1.00574925 2.83131729 1.5 4.25 C1.7784375 5.03890625 2.056875 5.8278125 2.34375 6.640625 C3 9 3 9 3 13 C-6.41002278 16.44419134 -6.41002278 16.44419134 -11 16 C-13.21854707 11.37802694 -14.38281159 8.23175837 -14 3 C-12.4188708 2.49307308 -10.83498617 1.99473557 -9.25 1.5 C-7.92742187 1.08234375 -7.92742187 1.08234375 -6.578125 0.65625 C-4 0 -4 0 0 0 Z " transform="translate(250,56)" style="fill: #7BA6DD;"/><path d="M0 0 C1.16796875 1.9609375 1.16796875 1.9609375 2.1875 4.375 C2.53167969 5.16648437 2.87585938 5.95796875 3.23046875 6.7734375 C4 9 4 9 4 12 C2.06441401 12.67220351 0.12645628 13.33758077 -1.8125 14 C-2.89144531 14.37125 -3.97039062 14.7425 -5.08203125 15.125 C-8 16 -8 16 -11 16 C-11.50757862 14.58603098 -12.00574925 13.16868271 -12.5 11.75 C-12.91765625 10.56664062 -12.91765625 10.56664062 -13.34375 9.359375 C-14 7 -14 7 -14 3 C-12.23358317 2.3012307 -10.46167336 1.61633417 -8.6875 0.9375 C-7.70136719 0.55464844 -6.71523438 0.17179687 -5.69921875 -0.22265625 C-3 -1 -3 -1 0 0 Z " transform="translate(268,51)" style="fill: #7AA6DC;"/><path d="M0 0 C4.75 0.875 4.75 0.875 7 2 C7.33 8.27 7.66 14.54 8 21 C5.11788698 21.96070434 3.30149956 22.10581883 0.3125 22.0625 C-0.89986328 22.04896484 -0.89986328 22.04896484 -2.13671875 22.03515625 C-2.75160156 22.02355469 -3.36648437 22.01195313 -4 22 C-3.61422945 14.25798419 -2.57611228 7.32328775 0 0 Z " transform="translate(222,34)" style="fill: #7BA6DC;"/><path d="M0 0 C1.58696844 3.17393689 1.1431447 6.58174205 1.125 10.0625 C1.12886719 10.80822266 1.13273437 11.55394531 1.13671875 12.32226562 C1.12663501 17.87336499 1.12663501 17.87336499 0 19 C-2.67058851 19.14115161 -5.32432238 19.04247107 -8 19 C-9.45933748 13.00679849 -10.41509121 7.14154225 -11 1 C-3.29268293 -1.51969981 -3.29268293 -1.51969981 0 0 Z " transform="translate(307,59)" style="fill: #7BA4DA;"/><path d="M0 0 C1.7479503 5.24385089 2.19392201 9.47322267 2 15 C-4.435 15.495 -4.435 15.495 -11 16 C-11.99 11.71 -12.98 7.42 -14 3 C-9.07015675 0.96006486 -5.42039575 -0.40652968 0 0 Z " transform="translate(292,63)" style="fill: #7AA6DC;"/><path d="M0 0 C1.22835325 2.24099569 2.43229495 4.4901378 3.625 6.75 C3.975625 7.38421875 4.32625 8.0184375 4.6875 8.671875 C7.16033894 13.41972576 7.16033894 13.41972576 6.34375 16.375 C4.75949364 18.2908449 3.29258981 19.08296408 1 20 C-4.12782839 15.49372656 -7.68159947 9.93869374 -11 4 C-11 3.34 -11 2.68 -11 2 C-7.12315913 0.80712589 -4.08378077 0 0 0 Z " transform="translate(219,84)" style="fill: #7BA6DA;"/><path d="M0 0 C0.50757862 1.41396902 1.00574925 2.83131729 1.5 4.25 C1.7784375 5.03890625 2.056875 5.8278125 2.34375 6.640625 C3 9 3 9 3 13 C-3.93 14.485 -3.93 14.485 -11 16 C-14 8.5 -14 8.5 -14 4 C-12.0429132 3.32968281 -10.08428887 2.66385317 -8.125 2 C-7.03445313 1.62875 -5.94390625 1.2575 -4.8203125 0.875 C-2 0 -2 0 0 0 Z " transform="translate(274,67)" style="fill: #7CA7DD;"/><path d="M0 0 C1.36328125 2.43359375 1.36328125 2.43359375 2.3125 5.4375 C2.63863281 6.42621094 2.96476562 7.41492188 3.30078125 8.43359375 C4 11 4 11 4 13 C-1.078125 16.3203125 -1.078125 16.3203125 -3 17 C-6.88794716 15.89878953 -8.32025285 13.42905163 -10.3125 10.0625 C-10.84488281 9.18722656 -11.37726563 8.31195313 -11.92578125 7.41015625 C-13 5 -13 5 -12 2 C-7.69429169 -0.31845832 -4.69273419 -1.78734609 0 0 Z " transform="translate(261,90)" style="fill: #7CA7DD;"/><path d="M0 0 C1.64542378 3.81045508 2.0907652 6.89462002 2 11 C0.2097939 11.67057887 -1.58221489 12.3363469 -3.375 13 C-4.37273437 13.37125 -5.37046875 13.7425 -6.3984375 14.125 C-9 15 -9 15 -11 15 C-12.65 11.04 -14.3 7.08 -16 3 C-4.4765625 -1.4921875 -4.4765625 -1.4921875 0 0 Z " transform="translate(256,74)" style="fill: #7BA7DD;"/><path d="M0 0 C2.49118953 3.7367843 2.2065226 5.74451819 2.125 10.1875 C2.10695313 11.45980469 2.08890625 12.73210937 2.0703125 14.04296875 C2.03550781 15.50669922 2.03550781 15.50669922 2 17 C-1.3 17 -4.6 17 -8 17 C-8.67260351 15.23141309 -9.33788395 13.46003984 -10 11.6875 C-10.37125 10.70136719 -10.7425 9.71523437 -11.125 8.69921875 C-12 6 -12 6 -12 3 C-8.04 2.01 -4.08 1.02 0 0 Z " transform="translate(277,84)" style="fill: #7CA7DD;"/><path d="M0 0 C1.32 0 2.64 0 4 0 C4.50404808 2.10320063 5.00310508 4.20759791 5.5 6.3125 C5.7784375 7.48425781 6.056875 8.65601563 6.34375 9.86328125 C7 13 7 13 7 16 C6.01 16 5.02 16 4 16 C3.67 14.02 3.34 12.04 3 10 C2.34 10 1.68 10 1 10 C0.67 11.98 0.34 13.96 0 16 C-1.32 16 -2.64 16 -4 16 C-4.66 14.35 -5.32 12.7 -6 11 C-6.66 12.98 -7.32 14.96 -8 17 C-8.99 17 -9.98 17 -11 17 C-10.67 11.72 -10.34 6.44 -10 1 C-8.68 1 -7.36 1 -6 1 C-4.68 3.64 -3.36 6.28 -2 9 C-1.34 6.03 -0.68 3.06 0 0 Z " transform="translate(283,482)" style="fill: #CAC590;"/><path d="M0 0 C2.97 0 5.94 0 9 0 C13.40774487 9.41002278 13.40774487 9.41002278 14 14 C5.21276596 16.38297872 5.21276596 16.38297872 1 16 C0 15 0 15 -0.09765625 11.62109375 C-0.09098369 10.22652923 -0.07902532 8.83198257 -0.0625 7.4375 C-0.05798828 6.72658203 -0.05347656 6.01566406 -0.04882812 5.28320312 C-0.03700864 3.52209987 -0.01907263 1.76103964 0 0 Z " transform="translate(234,38)" style="fill: #7AA6DC;"/><path d="M0 0 C4.59216906 4.06734974 7.2167907 8.56385928 10 14 C8.39850114 14.67305018 6.79368971 15.33822227 5.1875 16 C4.29417969 16.37125 3.40085937 16.7425 2.48046875 17.125 C0 18 0 18 -3 18 C-3.67260351 16.23141309 -4.33788395 14.46003984 -5 12.6875 C-5.37125 11.70136719 -5.7425 10.71523438 -6.125 9.69921875 C-7 7 -7 7 -7 4 C-4.69 2.68 -2.38 1.36 0 0 Z " transform="translate(255,32)" style="fill: #7AA6DC;"/><path d="M0 0 C1.8125 0.0625 1.8125 0.0625 4 1 C5.75 4.5625 5.75 4.5625 7 8 C7.66 5.69 8.32 3.38 9 1 C9.99 1 10.98 1 12 1 C12.2358396 6.77807024 11.86783046 11.51324804 10 17 C9.01 17 8.02 17 7 17 C5.68 14.36 4.36 11.72 3 9 C2.34 11.31 1.68 13.62 1 16 C0.01 16 -0.98 16 -2 16 C-1.85890014 13.89551062 -1.71195825 11.7914123 -1.5625 9.6875 C-1.48128906 8.51574219 -1.40007812 7.34398437 -1.31640625 6.13671875 C-1 3 -1 3 0 0 Z " transform="translate(190,479)" style="fill: #C9C590;"/><path d="M0 0 C0.99 0 1.98 0 3 0 C3.66 4.95 4.32 9.9 5 15 C-0.45949074 13.90810185 -1.01471081 13.31208438 -4 9 C-4.33 11.64 -4.66 14.28 -5 17 C-5.99 17 -6.98 17 -8 17 C-8.66 11.72 -9.32 6.44 -10 1 C-3.87232474 2.22553505 -3.51818479 3.27558042 0 8 C0 5.36 0 2.72 0 0 Z " transform="translate(306,480)" style="fill: #CCC791;"/><path d="M0 0 C1.32 0 2.64 0 4 0 C4 1.65 4 3.3 4 5 C5.65 5 7.3 5 9 5 C9 3.35 9 1.7 9 0 C9.99 0 10.98 0 12 0 C12 5.28 12 10.56 12 16 C10.68 15.67 9.36 15.34 8 15 C8 13.02 8 11.04 8 9 C6.68 9 5.36 9 4 9 C4 11.31 4 13.62 4 16 C2.68 15.67 1.36 15.34 0 15 C0 10.05 0 5.1 0 0 Z " transform="translate(240,484)" style="fill: #BAB789;"/><path d="M0 0 C3.2192396 0.16381086 4.11641067 1.12354179 6.359375 3.50390625 C7.14828125 4.51324219 7.9371875 5.52257812 8.75 6.5625 C9.54921875 7.57441406 10.3484375 8.58632813 11.171875 9.62890625 C11.77515625 10.41136719 12.3784375 11.19382812 13 12 C12.67 12.66 12.34 13.32 12 14 C11.01 14 10.02 14 9 14 C9 13.34 9 12.68 9 12 C7.02 12.33 5.04 12.66 3 13 C2.67 14.32 2.34 15.64 2 17 C1.01 17 0.02 17 -1 17 C-1.02684679 14.35409986 -1.04676357 11.70846904 -1.0625 9.0625 C-1.07087891 8.30775391 -1.07925781 7.55300781 -1.08789062 6.77539062 C-1.09652441 4.85005687 -1.05224333 2.92464419 -1 1 C-0.67 0.67 -0.34 0.34 0 0 Z " transform="translate(348,470)" style="fill: #C1BD8C;"/><path d="M0 0 C1.32 0 2.64 0 4 0 C4.67184618 2.10251861 5.33730968 4.20707763 6 6.3125 C6.37125 7.48425781 6.7425 8.65601563 7.125 9.86328125 C8 13 8 13 8 16 C7.01 16 6.02 16 5 16 C4.34 15.01 3.68 14.02 3 13 C0.41619823 12.74969023 0.41619823 12.74969023 -2 13 C-2.33 13.66 -2.66 14.32 -3 15 C-3.99 15 -4.98 15 -6 15 C-5.39644592 11.14974121 -4.23227397 8.13898841 -2.4375 4.6875 C-1.98246094 3.80449219 -1.52742187 2.92148437 -1.05859375 2.01171875 C-0.53458984 1.01591797 -0.53458984 1.01591797 0 0 Z " transform="translate(224,483)" style="fill: #C3BF8D;"/><path d="M0 0 C2.875 1.875 2.875 1.875 5 4 C5 4.66 5 5.32 5 6 C2.43565836 5.48713167 -0.12781543 4.97324793 -2.6875 4.4375 C-4.93526987 3.93803611 -4.93526987 3.93803611 -7 4 C-7.04241723 6.33294775 -7.04092937 8.66702567 -7 11 C-5.81575674 12.41577477 -5.81575674 12.41577477 -2.4375 12.0625 C-0.7359375 12.0315625 -0.7359375 12.0315625 1 12 C1 13.32 1 14.64 1 16 C-6.2 16.48 -6.2 16.48 -9.5 14.5 C-11.61136591 10.98105682 -11.94237143 7.99893269 -11 4 C-7.72794548 0.1505241 -4.96702569 -0.82783761 0 0 Z " transform="translate(167,473)" style="fill: #CDC891;"/><path d="M0 0 C2.64 0.33 5.28 0.66 8 1 C8 1.99 8 2.98 8 4 C6.02 4 4.04 4 2 4 C2 4.66 2 5.32 2 6 C3.65 6.33 5.3 6.66 7 7 C7 7.99 7 8.98 7 10 C5.02 10 3.04 10 1 10 C1 10.99 1 11.98 1 13 C2.65 13.33 4.3 13.66 6 14 C6 14.99 6 15.98 6 17 C3.03 16.67 0.06 16.34 -3 16 C-2.57910004 10.39538469 -2.08386889 5.27913453 0 0 Z " transform="translate(180,477)" style="fill: #C6C28E;"/><path d="M0 0 C0.87144869 1.5529276 1.72153657 3.11785436 2.5625 4.6875 C3.03816406 5.55761719 3.51382812 6.42773438 4.00390625 7.32421875 C5.15875216 10.42645189 5.05279562 11.89451745 4 15 C2 17 2 17 -1.125 17.125 C-2.548125 17.063125 -2.548125 17.063125 -4 17 C-5.00508801 15.21118264 -6.00392736 13.41885304 -7 11.625 C-7.556875 10.62726563 -8.11375 9.62953125 -8.6875 8.6015625 C-10 6 -10 6 -10 4 C-9.01 3.67 -8.02 3.34 -7 3 C-6.67386719 3.71027344 -6.34773438 4.42054688 -6.01171875 5.15234375 C-5.35623047 6.53099609 -5.35623047 6.53099609 -4.6875 7.9375 C-4.25824219 8.85402344 -3.82898438 9.77054687 -3.38671875 10.71484375 C-2.14921339 13.30969412 -2.14921339 13.30969412 1 14 C0.79503906 13.39671875 0.59007812 12.7934375 0.37890625 12.171875 C0.10949219 11.37265625 -0.15992188 10.5734375 -0.4375 9.75 C-0.70433594 8.96109375 -0.97117187 8.1721875 -1.24609375 7.359375 C-1.9224154 5.24280362 -2.5799322 3.18242123 -3 1 C-2 0 -2 0 0 0 Z " transform="translate(375,460)" style="fill: #CDC891;"/><path d="M0 0 C3.37462715 0.54723683 5.08235 1.0549 8 3 C7.67 3.99 7.34 4.98 7 6 C5.35 5.67 3.7 5.34 2 5 C3.32 6.32 4.64 7.64 6 9 C5.34 9.66 4.68 10.32 4 11 C1.525 10.01 1.525 10.01 -1 9 C-1 10.32 -1 11.64 -1 13 C0.32 13.33 1.64 13.66 3 14 C2.67 14.99 2.34 15.98 2 17 C-0.35171131 16.40138258 -2.6859378 15.73075648 -5 15 C-5.33 14.34 -5.66 13.68 -6 13 C-5.10333658 10.75689987 -4.10853317 8.55245679 -3.0625 6.375 C-2.49660156 5.18648438 -1.93070313 3.99796875 -1.34765625 2.7734375 C-0.90292969 1.85820312 -0.45820313 0.94296875 0 0 Z " transform="translate(134,463)" style="fill: #CDC891;"/><path d="M0 0 C2.625 0.375 2.625 0.375 5 1 C4.67 1.99 4.34 2.98 4 4 C3.01 4 2.02 4 1 4 C1 4.66 1 5.32 1 6 C1.928125 6.103125 2.85625 6.20625 3.8125 6.3125 C7 7 7 7 8.9375 8.25 C10 10 10 10 9.6875 12.6875 C9.460625 13.450625 9.23375 14.21375 9 15 C6.69 15.33 4.38 15.66 2 16 C2 14.68 2 13.36 2 12 C3.32 12.33 4.64 12.66 6 13 C6 12.01 6 11.02 6 10 C5.071875 9.896875 4.14375 9.79375 3.1875 9.6875 C0 9 0 9 -1.9375 7.6875 C-3 6 -3 6 -2.8125 3.9375 C-2 2 -2 2 0 0 Z " transform="translate(381,455)" style="fill: #CAC590;"/><path d="M0 0 C2.00720923 0.28674418 4.0085944 0.61866701 6 1 C6.33 1.99 6.66 2.98 7 4 C3 4 3 4 1 3 C1.680625 4.051875 2.36125 5.10375 3.0625 6.1875 C4.59648815 8.8503738 5.0185094 9.71618926 4.8125 12.875 C4 15 4 15 3 16 C0.0625 16.1875 0.0625 16.1875 -3 16 C-5 14 -5 14 -5 11 C-2.83125748 11.50603992 -1.00032373 11.99983813 1 13 C0.484375 11.948125 -0.03125 10.89625 -0.5625 9.8125 C-1.9882111 6.51261469 -2.22898883 4.48213502 -1 1 C-0.67 0.67 -0.34 0.34 0 0 Z " transform="translate(149,469)" style="fill: #CBC691;"/><path d="M0 0 C1.2065625 0.0309375 1.2065625 0.0309375 2.4375 0.0625 C2.4375 1.3825 2.4375 2.7025 2.4375 4.0625 C1.4475 3.7325 0.4575 3.4025 -0.5625 3.0625 C0.3346875 3.9596875 0.3346875 3.9596875 1.25 4.875 C1.971875 5.596875 2.69375 6.31875 3.4375 7.0625 C4.3346875 7.7740625 4.3346875 7.7740625 5.25 8.5 C6.4375 10.0625 6.4375 10.0625 6.1875 12.6875 C5.4375 15.0625 5.4375 15.0625 4.4375 16.0625 C2.43791636 16.10330783 0.43704746 16.10504356 -1.5625 16.0625 C-1.5625 14.7425 -1.5625 13.4225 -1.5625 12.0625 C0.0875 12.3925 1.7375 12.7225 3.4375 13.0625 C0.96808944 10.46312046 -1.74310883 8.27229308 -4.5625 6.0625 C-3.48963568 0.08511307 -3.48963568 0.08511307 0 0 Z " transform="translate(321.5625,476.9375)" style="fill: #CBC691;"/><path d="M0 0 C0 0.99 0 1.98 0 3 C-1.32 3.33 -2.64 3.66 -4 4 C-3.030625 4.474375 -2.06125 4.94875 -1.0625 5.4375 C2 7 2 7 3 8 C3.125 11 3.125 11 3 14 C2 15 2 15 -1.5625 15.0625 C-2.696875 15.041875 -3.83125 15.02125 -5 15 C-5 14.01 -5 13.02 -5 12 C-3.35 12 -1.7 12 0 12 C-2.46941056 9.40062046 -5.18060883 7.20979308 -8 5 C-7.625 2.5625 -7.625 2.5625 -7 0 C-4.3333581 -1.33332095 -2.83319697 -0.67102033 0 0 Z " transform="translate(341,474)" style="fill: #CAC590;"/><path d="M0 0 C3.0625 0.1875 3.0625 0.1875 5.0625 2.1875 C5.5 4.625 5.5 4.625 5.0625 7.1875 C2.5625 9 2.5625 9 0.0625 10.1875 C-1.5875 9.1975 -3.2375 8.2075 -4.9375 7.1875 C-3.9041362 0.24920018 -3.9041362 0.24920018 0 0 Z " transform="translate(261.9375,486.8125)" style="fill: #172943;"/><path d="M0 0 C2.31 0.33 4.62 0.66 7 1 C5.19389405 7.34339651 2.74372266 12.56938255 -1 18 C-2.25985286 14.22044143 -1.64024579 11.15576548 -1.0625 7.3125 C-0.96259766 6.61060547 -0.86269531 5.90871094 -0.75976562 5.18554688 C-0.51270675 3.45613473 -0.25717148 1.7279373 0 0 Z " transform="translate(299,82)" style="fill: #81A5D8;"/><path d="M0 0 C1.32 0 2.64 0 4 0 C4.50404808 2.10320063 5.00310508 4.20759791 5.5 6.3125 C5.7784375 7.48425781 6.056875 8.65601563 6.34375 9.86328125 C7 13 7 13 7 16 C6.01 16 5.02 16 4 16 C3.67 14.02 3.34 12.04 3 10 C2.34 10 1.68 10 1 10 C0.34 9.34 -0.32 8.68 -1 8 C-0.96712417 5.27130593 -0.43602229 2.7033382 0 0 Z " transform="translate(283,482)" style="fill: #C0BC8C;"/><path d="M0 0 C5.75 -0.125 5.75 -0.125 8 1 C8 1.99 8 2.98 8 4 C7.01 4 6.02 4 5 4 C5.01160156 4.61488281 5.02320313 5.22976563 5.03515625 5.86328125 C5.04869141 7.07564453 5.04869141 7.07564453 5.0625 8.3125 C5.07410156 9.11300781 5.08570313 9.91351563 5.09765625 10.73828125 C5 13 5 13 4 16 C3.01 16 2.02 16 1 16 C0.92345464 11.48382401 0.89771304 7.40914783 2 3 C1.34 3 0.68 3 0 3 C0 2.01 0 1.02 0 0 Z " transform="translate(204,481)" style="fill: #CCC791;"/><path d="M0 0 C4.52615993 3.67832017 8.39424999 7.41086363 12 12 C7.85701333 11.40165275 4.81805623 9.99335715 1.1875 7.9375 C0.21167969 7.38964844 -0.76414063 6.84179688 -1.76953125 6.27734375 C-2.87361328 5.64505859 -2.87361328 5.64505859 -4 5 C-4 4.34 -4 3.68 -4 3 C-2 1.375 -2 1.375 0 0 Z " transform="translate(228,103)" style="fill: #82A9D9;"/><path d="M0 0 C6.34339651 1.80610595 11.56938255 4.25627734 17 8 C15.35 9.32 13.7 10.64 12 12 C10.8274869 11.04882866 9.66212985 10.08882991 8.5 9.125 C7.8503125 8.59132813 7.200625 8.05765625 6.53125 7.5078125 C6.0259375 7.01023437 5.520625 6.51265625 5 6 C5 5.34 5 4.68 5 4 C4.360625 3.71125 3.72125 3.4225 3.0625 3.125 C1 2 1 2 0 0 Z " transform="translate(272,24)" style="fill: #84A1D3;"/><path d="M0 0 C1.890625 0.21484375 1.890625 0.21484375 4 1 C5.046875 3.06640625 5.046875 3.06640625 5.75 5.5625 C5.99234375 6.38878906 6.2346875 7.21507812 6.484375 8.06640625 C6.65453125 8.70449219 6.8246875 9.34257812 7 10 C8.65 10 10.3 10 12 10 C12.33 10.99 12.66 11.98 13 13 C10.69 13.66 8.38 14.32 6 15 C3.74138003 10.06612142 1.59890486 5.19644079 0 0 Z " transform="translate(357,467)" style="fill: #C8C38F;"/><path d="M0 0 C2.50014115 3.74095194 1.90042304 6.44209421 1.125 10.75 C0.81949219 12.50570313 0.81949219 12.50570313 0.5078125 14.296875 C0.25644531 15.63492187 0.25644531 15.63492187 0 17 C-0.41378906 16.03320312 -0.41378906 16.03320312 -0.8359375 15.046875 C-1.84757889 12.71229528 -1.84757889 12.71229528 -4.625 12.25 C-5.40875 12.1675 -6.1925 12.085 -7 12 C-7 11.01 -7 10.02 -7 9 C-5.02 9 -3.04 9 -1 9 C-1 8.01 -1 7.02 -1 6 C-2.65 5.67 -4.3 5.34 -6 5 C-6 4.34 -6 3.68 -6 3 C-4.02 3 -2.04 3 0 3 C0 2.01 0 1.02 0 0 Z " transform="translate(188,478)" style="fill: #152843;"/><path d="M0 0 C1.60355101 3.50776784 2.22036864 6.14354879 2 10 C-2.31392226 9.5206753 -4.16569547 8.2542015 -7 5 C-5.64703851 0.94111554 -4.27479763 0 0 0 Z " transform="translate(267,107)" style="fill: #80A9DA;"/><path d="M0 0 C2.64 0 5.28 0 8 0 C7.67 2.97 7.34 5.94 7 9 C5.68 9.33 4.36 9.66 3 10 C0 3.375 0 3.375 0 0 Z " transform="translate(271,105)" style="fill: #7CA6DB;"/><path d="M0 0 C2 1 2 1 2.6328125 2.84765625 C2.79523438 3.57855469 2.95765625 4.30945313 3.125 5.0625 C3.29257813 5.79597656 3.46015625 6.52945312 3.6328125 7.28515625 C3.75398437 7.85105469 3.87515625 8.41695312 4 9 C1.36 9 -1.28 9 -4 9 C-4 6.69 -4 4.38 -4 2 C-2.125 0.9375 -2.125 0.9375 0 0 Z " transform="translate(238,25)" style="fill: #88AFDD;"/><path d="M0 0 C0.99 0 1.98 0 3 0 C2.67 5.28 2.34 10.56 2 16 C0.68 16 -0.64 16 -2 16 C-1.34 10.72 -0.68 5.44 0 0 Z " transform="translate(214,482)" style="fill: #C6C18E;"/><path d="M0 0 C0.33 0 0.66 0 1 0 C0.67 4.29 0.34 8.58 0 13 C-1.98 13 -3.96 13 -6 13 C-5.52467862 7.92990529 -2.95637706 4.02506742 0 0 Z " transform="translate(214,43)" style="fill: #7FA8DA;"/><path d="M0 0 C0.99 0 1.98 0 3 0 C2.68954268 1.9169986 2.37655329 3.83358723 2.0625 5.75 C1.88847656 6.81734375 1.71445313 7.8846875 1.53515625 8.984375 C1.11295829 11.36347593 0.62797116 13.66915211 0 16 C-0.99 15.67 -1.98 15.34 -3 15 C-2.5547115 9.72684667 -1.91626837 4.98229776 0 0 Z " transform="translate(174,476)" style="fill: #C8C48F;"/><path d="M0 0 C0.99 0 1.98 0 3 0 C3.33776684 1.7491497 3.67003671 3.49936145 4 5.25 C4.185625 6.22453125 4.37125 7.1990625 4.5625 8.203125 C5 11 5 11 5 15 C4.01 15 3.02 15 2 15 C0.2520497 9.75614911 -0.19392201 5.52677733 0 0 Z " transform="translate(312,479)" style="fill: #CAC590;"/><path d="M0 0 C3.68754757 0.49831724 5.60490662 1.10067643 8 4 C7.25 5.9375 7.25 5.9375 6 8 C3.875 8.75 3.875 8.75 2 9 C0.14223235 5.86501708 -0.20140476 3.62528568 0 0 Z " transform="translate(244,23)" style="fill: #7DA7DA;"/><path d="M0 0 C0.99 0 1.98 0 3 0 C4.03590199 5.05002222 4.10251672 9.87416389 4 15 C3.01 15 2.02 15 1 15 C0.67 10.05 0.34 5.1 0 0 Z " transform="translate(291,482)" style="fill: #D2CC93;"/><path d="M0 0 C3.48330216 0.64505596 6.09432866 1.98217268 9 4 C9 4.66 9 5.32 9 6 C8.21625 5.95875 7.4325 5.9175 6.625 5.875 C3.83883881 5.71271266 3.83883881 5.71271266 2 8 C2 7.34 2 6.68 2 6 C1.34 6 0.68 6 0 6 C0 4.02 0 2.04 0 0 Z " transform="translate(316,484)" style="fill: #233449;"/><path d="M0 0 C1.98362069 2.91708924 1.9876191 4.12380904 1.625 7.75 C1.41875 8.8225 1.2125 9.895 1 11 C-1 9 -1 9 -1 6 C-2.65 5.67 -4.3 5.34 -6 5 C-6 4.34 -6 3.68 -6 3 C-4.02 3 -2.04 3 0 3 C0 2.01 0 1.02 0 0 Z " transform="translate(188,478)" style="fill: #213348;"/><path d="M0 0 C0.33 0.66 0.66 1.32 1 2 C1.66 2 2.32 2 3 2 C2.67 4.31 2.34 6.62 2 9 C1.01 8.67 0.02 8.34 -1 8 C-0.67 5.36 -0.34 2.72 0 0 Z " transform="translate(176,479)" style="fill: #233449;"/><path d="M0 0 C2.475 0.495 2.475 0.495 5 1 C4.67 1.99 4.34 2.98 4 4 C1.9375 4.6875 1.9375 4.6875 0 5 C0 3.35 0 1.7 0 0 Z " transform="translate(381,455)" style="fill: #B5B387;"/></svg>