<?xml version="1.0" standalone="no"?>
<!DOCTYPE svg PUBLIC "-//W3C//DTD SVG 20010904//EN"
 "http://www.w3.org/TR/2001/REC-SVG-20010904/DTD/svg10.dtd">
<svg version="1.0" xmlns="http://www.w3.org/2000/svg"
 width="900.000000pt" height="900.000000pt" viewBox="0 0 900.000000 900.000000"
 preserveAspectRatio="xMidYMid meet">
<metadata>
Created by potrace 1.10, written by Peter Selinger 2001-2011
</metadata>
<g transform="translate(0.000000,900.000000) scale(0.100000,-0.100000)"
fill="#004066" stroke="none">
<path d="M4085 8484 c-164 -7 -507 -61 -690 -109 -237 -62 -384 -112 -639
-217 -118 -48 -388 -191 -516 -273 -179 -114 -236 -154 -380 -270 -150 -120
-187 -153 -351 -316 -116 -116 -298 -327 -376 -438 -81 -114 -166 -242 -179
-271 -4 -8 -13 -22 -19 -30 -7 -8 -24 -35 -37 -60 -14 -25 -39 -70 -56 -100
-48 -86 -144 -342 -175 -470 -40 -160 -46 -203 -53 -335 -10 -219 19 -419 91
-615 24 -68 102 -217 151 -291 51 -77 173 -219 230 -267 21 -19 51 -45 65 -58
80 -72 366 -234 413 -234 8 0 30 -6 48 -14 78 -33 292 -66 428 -66 112 0 273
21 380 50 41 11 91 25 111 30 44 11 234 97 269 120 14 10 47 31 74 48 134 86
313 265 406 408 84 128 83 126 126 214 20 41 41 83 46 94 5 10 32 78 59 150
27 72 56 145 64 163 8 17 15 36 15 42 0 6 4 19 10 29 5 9 26 60 45 112 20 52
42 111 50 130 22 55 101 260 121 315 10 28 24 61 31 75 7 14 13 31 13 38 0 8
6 26 14 40 8 15 29 65 46 112 18 47 52 137 77 200 45 117 63 163 90 235 9 22
22 54 29 72 8 17 14 35 14 40 0 8 47 126 76 190 8 17 14 35 14 41 0 5 7 23 15
38 8 16 15 36 15 44 0 9 4 20 9 25 4 6 13 24 19 40 6 17 20 55 32 85 11 30 27
71 34 90 65 171 119 310 131 337 8 17 15 34 15 39 0 4 20 57 44 118 24 61 56
143 71 181 14 39 34 90 45 115 10 25 32 83 50 130 17 47 37 99 45 115 26 59
37 107 28 116 -9 9 -539 19 -688 13z"/>
<path d="M7086 7392 c-2 -4 -23 -57 -46 -117 -66 -173 -91 -238 -106 -272 -8
-17 -14 -36 -14 -41 0 -6 -6 -23 -14 -39 -13 -26 -22 -48 -61 -153 -25 -67
-76 -195 -91 -227 -8 -17 -14 -36 -14 -42 0 -6 -6 -25 -14 -43 -54 -125 -196
-496 -196 -511 0 -7 -4 -17 -8 -22 -4 -6 -18 -37 -31 -70 -12 -33 -29 -76 -36
-95 -19 -49 -78 -202 -110 -285 -15 -38 -33 -84 -41 -102 -8 -17 -14 -37 -14
-45 0 -8 -4 -18 -8 -24 -4 -5 -18 -36 -31 -69 -24 -64 -26 -68 -96 -250 -26
-66 -52 -136 -60 -155 -23 -64 -47 -125 -60 -155 -7 -16 -25 -64 -40 -105 -15
-41 -36 -94 -46 -117 -11 -23 -19 -45 -19 -49 0 -11 -114 -297 -153 -384 -40
-91 -158 -327 -192 -385 -19 -33 -39 -69 -44 -80 -5 -11 -21 -37 -35 -58 -14
-21 -26 -40 -26 -43 0 -9 -124 -189 -199 -290 -150 -199 -361 -428 -526 -569
-44 -38 -82 -72 -85 -75 -16 -21 -374 -280 -387 -280 -3 0 -24 -13 -47 -28
-22 -15 -48 -31 -56 -35 -8 -4 -35 -19 -60 -33 -156 -91 -467 -234 -575 -264
-16 -5 -70 -23 -119 -40 -247 -86 -572 -151 -901 -182 -256 -24 -741 -7 -935
32 -93 19 -102 8 -42 -48 20 -19 64 -60 97 -91 319 -299 691 -541 1130 -737
194 -87 524 -191 755 -239 41 -9 95 -20 120 -26 25 -5 82 -14 128 -19 45 -5
110 -15 145 -21 41 -8 186 -13 427 -13 378 -1 403 1 700 51 103 17 355 75 435
100 352 110 660 242 892 384 35 22 65 39 68 39 3 0 33 19 68 43 34 24 69 46
77 50 16 8 106 72 206 146 235 176 575 515 735 732 22 30 52 70 67 89 131 169
332 520 427 745 21 50 42 95 46 100 4 6 12 26 17 45 6 19 20 60 32 90 23 60
79 231 103 320 50 181 56 212 88 410 11 69 24 151 30 184 30 170 29 820 -1
926 -6 19 -10 49 -10 67 0 44 -49 308 -77 418 -47 184 -117 410 -152 490 -5
11 -33 76 -61 145 -175 417 -450 835 -780 1184 -127 135 -160 161 -174 138z"/>
</g>
</svg>
